<?xml version="1.0" encoding="UTF-8"?>
<svg version="1.1" xmlns="http://www.w3.org/2000/svg" width="1024" height="1024">
<path d="M0 0 C20.30532228 -0.0466685 40.61063372 -0.08196352 60.91599846 -0.10362434 C70.343594 -0.11394802 79.77115628 -0.12802914 89.19873047 -0.15087891 C97.4133812 -0.17077944 105.62800784 -0.18370849 113.842682 -0.18817699 C118.19447697 -0.19079004 122.546203 -0.19695438 126.89797592 -0.21146011 C130.99039622 -0.22499139 135.08271891 -0.22923172 139.17515945 -0.22621536 C140.68045328 -0.22676753 142.18575023 -0.23077145 143.69102478 -0.23841095 C145.73970199 -0.24830203 147.78843107 -0.24479117 149.83712769 -0.24050903 C150.98568174 -0.24235262 152.1342358 -0.24419621 153.31759453 -0.24609566 C156 0 156 0 158 2 C158.69966081 3.35850808 159.36023665 4.73727802 160 6.125 C162.2021223 10.6119833 164.69897442 14.84662945 167.375 19.0625 C171.7755346 25.99914989 176.03604211 33.01095647 180.25 40.0625 C185.1334963 48.22892084 190.04250343 56.37827848 195 64.5 C200.43198547 73.40231454 205.80974722 82.33589127 211.16601562 91.28393555 C214.5871717 96.99398685 218.02262083 102.69492901 221.48046875 108.3828125 C221.85778641 109.00350113 222.23510406 109.62418976 222.62385559 110.26368713 C224.44828785 113.26377172 226.27447524 116.26277396 228.1027832 119.26049805 C229.4326114 121.44476856 230.7518001 123.63555856 232.05932617 125.83325195 C233.36003464 127.95571887 234.72676126 130.03901896 236.15356445 132.07885742 C241.02581743 139.34282604 241.02581743 139.34282604 240.95458984 143.91479492 C240.25994532 146.96943655 239.31419671 149.76527357 238.1875 152.6875 C237.47807523 154.77348639 236.77236705 156.86074032 236.0703125 158.94921875 C235.71356445 159.96677246 235.35681641 160.98432617 234.98925781 162.03271484 C233.56762059 166.29692482 232.53197054 170.61439023 231.5625 175 C231.39967529 175.71760498 231.23685059 176.43520996 231.0690918 177.17456055 C230.70640083 178.78162552 230.35206213 180.39057313 230 182 C231.06775224 180.03533587 232.06553465 178.03144641 233 176 C232.67 175.34 232.34 174.68 232 174 C232.99 174 233.98 174 235 174 C235.26844727 173.29399658 235.53689453 172.58799316 235.81347656 171.8605957 C238.06001128 166.44441312 240.97722687 161.34865831 243.75 156.1875 C244.08224579 155.56741058 244.41449158 154.94732117 244.75680542 154.30844116 C249.90673976 144.70948752 255.26125173 135.25064059 260.80004883 125.86962891 C264.95559027 118.82568572 268.97201594 111.71494089 272.9375 104.5625 C278.18237608 95.1224561 283.64850538 85.84035666 289.24267578 76.60375977 C294.05447398 68.6362042 298.71233015 60.59071211 303.3125 52.5 C303.65276215 51.90172394 303.99302429 51.30344788 304.34359741 50.68704224 C304.68033478 50.09494965 305.01707214 49.50285706 305.36401367 48.89282227 C314.88475261 32.15291984 314.88475261 32.15291984 317.25469971 28.46374512 C319.70452862 24.54937797 321.46794251 20.82243143 322.94921875 16.44238281 C325.47119453 9.87193872 328.20590044 4.23370705 334 0 C345.53361602 -3.52681509 358.23614412 -2.17372087 370.12335205 -1.51062012 C374.61967825 -1.28385971 379.11872301 -1.1847455 383.61914062 -1.07421875 C392.42025386 -0.83955743 401.2080696 -0.46521398 410 0 C402.69794049 12.56281763 402.69794049 12.56281763 399.1953125 18.27734375 C398.20917969 19.89153198 398.20917969 19.89153198 397.203125 21.53833008 C396.51734375 22.66005615 395.8315625 23.78178223 395.125 24.9375 C387.8694804 36.83288062 380.78799706 48.8238589 373.76304626 60.85647583 C370.64575286 66.19555077 367.51210109 71.52235029 364.3125 76.8125 C358.71429957 86.09259379 353.28936214 95.47419208 347.83935547 104.84179688 C346.03297637 107.94337904 344.2223783 111.04245375 342.41015625 114.140625 C336.42282744 124.37928715 330.47140508 134.63623072 324.60009766 144.94189453 C320.67468386 151.82973883 316.7164524 158.69821806 312.75 165.5625 C307.35422428 174.90485641 301.97821878 184.25820505 296.625 193.625 C296.28297546 194.22341705 295.94095093 194.82183411 295.58856201 195.43838501 C291.82395847 202.02739429 288.07629512 208.62519263 284.375 215.25 C280.17320208 222.76852768 275.81011626 230.19151028 271.45727539 237.62329102 C266.61621858 245.9047526 261.87415864 254.23922642 257.17480469 262.60180664 C256.66981445 263.50020264 256.16482422 264.39859863 255.64453125 265.32421875 C255.20471924 266.10885498 254.76490723 266.89349121 254.31176758 267.7019043 C252.9103689 270.15702541 251.46250213 272.58086579 250 275 C245.91171804 270.32064113 243.01149481 265.05407776 239.9375 259.6875 C238.68341997 257.51887838 237.42814811 255.35094567 236.171875 253.18359375 C235.83979538 252.61009186 235.50771576 252.03658997 235.16557312 251.44570923 C231.05371288 244.35240793 226.87378591 237.2995555 222.6875 230.25 C222.08609192 229.23672134 222.08609192 229.23672134 221.47253418 228.20297241 C215.42223377 218.01432344 209.29569381 207.87413391 203.12493896 197.75808716 C197.67330555 188.81683441 192.35691264 179.80546884 187.10742188 170.74438477 C181.93683044 161.83972579 176.59227134 153.04647806 171.21484375 144.265625 C169.18742868 140.9540403 167.17662393 137.63392798 165.19140625 134.296875 C164.7735083 133.5944165 164.35561035 132.89195801 163.92504883 132.16821289 C163.1684489 130.89285548 162.41419097 129.6161043 161.6628418 128.33764648 C160.25122562 125.95921755 158.96567871 123.96567871 157 122 C156.30033919 120.64149192 155.63976335 119.26272198 155 117.875 C152.38429644 112.53682948 149.31467634 107.58708836 146.13769531 102.57397461 C142.76248583 97.24092303 139.48507522 91.85661259 136.25 86.4375 C131.64492487 78.73788105 127.02408329 71.04814533 122.375 63.375 C121.77075195 62.37267334 121.16650391 61.37034668 120.54394531 60.33764648 C119.69848145 58.94461304 119.69848145 58.94461304 118.8359375 57.5234375 C118.33626465 56.69763184 117.8365918 55.87182617 117.32177734 55.02099609 C116.02656867 52.89007394 116.02656867 52.89007394 114 51 C113.34 50.34 112.68 49.68 112 49 C109.46208567 48.90126172 107.04228242 48.92569753 104.51196289 49.04272461 C102.90993234 49.09873711 101.30788578 49.15429295 99.70582581 49.2094574 C98.85378633 49.24202574 98.00174686 49.27459408 97.12388802 49.30814934 C92.60648294 49.46864618 88.08748145 49.55650827 83.56835938 49.65429688 C77.81861342 49.78005647 72.07294864 49.92775315 66.3269043 50.17260742 C61.68181769 50.36861813 57.04132142 50.47949566 52.39251518 50.53503609 C50.62836285 50.57125113 48.86454397 50.63780733 47.10276985 50.73628044 C35.90209059 51.34253581 35.90209059 51.34253581 31 49 C26.47092709 44.85554936 23.68746916 39.45564158 21.00610352 34.00734425 C19.70495446 31.41133496 18.17205517 28.9976603 16.58203125 26.5703125 C15.65854237 25.08873597 14.73535336 23.60697247 13.8125 22.125 C9.890112 15.85391886 5.83416854 9.80427243 1.328125 3.93359375 C0 2 0 2 0 0 Z M228 184 C229 186 229 186 229 186 Z " fill="#07DAE3" transform="translate(360,365)"/>
<path d="M0 0 C6.01375038 -0.22297148 12.02508338 -0.38601105 18.04199219 -0.49438477 C20.08701491 -0.53956701 22.13174812 -0.60092981 24.17578125 -0.67895508 C27.12051719 -0.78852332 30.06140613 -0.83924086 33.0078125 -0.87890625 C33.9174173 -0.92535782 34.82702209 -0.97180939 35.76419067 -1.01966858 C38.44848972 -1.02178928 40.46872306 -0.90413013 43 0 C45.60725851 2.69081727 47.22936315 5.72178324 49 9 C49.76057205 9.97704391 50.5211441 10.95408783 51.30476379 11.96073914 C59.57675321 23.69593461 58.06346597 37.08786189 57.88671875 50.89453125 C57.87522693 53.61390756 57.87495307 56.33326044 57.87397766 59.05265808 C57.86569783 64.73577481 57.82735369 70.41802454 57.76831055 76.10083008 C57.70068743 82.62425999 57.67068377 89.14695043 57.6633355 95.67071038 C57.65539012 102.67875781 57.62452546 109.68655429 57.58454156 116.69448638 C57.5743315 118.6850487 57.56800022 120.67562969 57.56171227 122.66620827 C57.44285716 150.27391052 55.17003713 174.65280446 35.359375 195.7265625 C14.1067765 216.20505973 -16.71662717 220.54072469 -44.97973633 220.35546875 C-78.08395359 219.61999974 -110.7456579 211.85381076 -134.54882812 187.55810547 C-141.41383633 180.18723024 -147.63707216 172.11152886 -152 163 C-148.11716743 162.08192742 -144.5553899 161.8966565 -140.5703125 161.9375 C-139.22990018 161.94605491 -137.88948668 161.95442672 -136.54907227 161.96264648 C-135.83179962 161.96884003 -135.11452698 161.97503357 -134.3755188 161.98141479 C-121.76628855 162.08554418 -109.1657822 161.99660097 -96.55859375 161.74609375 C-94.70228333 161.70931015 -94.70228333 161.70931015 -92.80847168 161.67178345 C-86.59686132 161.54597063 -80.38555317 161.41057719 -74.17431641 161.26757812 C-71.86751486 161.21866296 -69.56071156 161.16983105 -67.25390625 161.12109375 C-65.65922768 161.08054115 -65.65922768 161.08054115 -64.03233337 161.03916931 C-63.04656815 161.01907303 -62.06080292 160.99897675 -61.04516602 160.97827148 C-60.18778336 160.95828598 -59.3304007 160.93830048 -58.44703674 160.91770935 C-55.8679032 161.00444224 -53.51225986 161.42658886 -51 162 C-50.87625 162.639375 -50.7525 163.27875 -50.625 163.9375 C-50.315625 164.9584375 -50.315625 164.9584375 -50 166 C-45.97408037 168.01295982 -40.86255493 167.22901574 -36.4375 167.25 C-35.37724609 167.270625 -34.31699219 167.29125 -33.22460938 167.3125 C-25.70975341 167.34958751 -18.37648086 167.03017513 -12.5625 161.8125 C-12.046875 161.214375 -11.53125 160.61625 -11 160 C-10.34 160 -9.68 160 -9 160 C-8.71125 159.4121875 -8.4225 158.824375 -8.125 158.21875 C-7.45052424 156.88853392 -6.75003544 155.57037342 -6 154.28125 C-0.49484954 144.47520075 -0.70042813 133.1159832 -0.68115234 122.15332031 C-0.67182797 120.81165988 -0.66165569 119.47000512 -0.65071106 118.12835693 C-0.62367922 114.52588855 -0.60834241 110.92345865 -0.59528303 107.32091618 C-0.57953356 103.54127202 -0.55278178 99.76170516 -0.5272522 95.9821167 C-0.48067177 88.84268668 -0.44382809 81.70324178 -0.41057932 74.56373858 C-0.37221038 66.42813776 -0.3228395 58.29261497 -0.27259517 50.15708017 C-0.16958416 33.43810969 -0.08022464 16.71909569 0 0 Z " fill="#08DAE2" transform="translate(430,431)"/>
<path d="M0 0 C0.66 0.33 1.32 0.66 2 1 C2.48657227 2.79980469 2.48657227 2.79980469 2.81640625 5.171875 C2.94039795 6.05375488 3.06438965 6.93563477 3.19213867 7.84423828 C3.31435791 8.80313965 3.43657715 9.76204102 3.5625 10.75 C3.69180908 11.73339355 3.82111816 12.71678711 3.9543457 13.72998047 C12.46778521 81.97911484 -3.72290603 156.79074686 -44 213 C-44.43779785 213.61149902 -44.8755957 214.22299805 -45.32666016 214.85302734 C-52.02200819 224.1449469 -59.14497344 232.67267754 -67 241 C-68.27900157 242.45117486 -69.55090245 243.90866951 -70.8125 245.375 C-73.74443767 248.74390915 -76.72800585 251.95628451 -80 255 C-80.66 255 -81.32 255 -82 255 C-82 255.66 -82 256.32 -82 257 C-82.66 257 -83.32 257 -84 257 C-84 257.66 -84 258.32 -84 259 C-85.87890625 260.7421875 -85.87890625 260.7421875 -88.5625 262.875 C-90.07263672 264.07962891 -90.07263672 264.07962891 -91.61328125 265.30859375 C-92.43626709 265.95997314 -92.43626709 265.95997314 -93.27587891 266.62451172 C-95.04573138 268.03648408 -96.79561539 269.470459 -98.54296875 270.91015625 C-107.01462938 277.85536105 -115.72243033 284.17564338 -125 290 C-125.63035156 290.39896484 -126.26070312 290.79792969 -126.91015625 291.20898438 C-160.43999735 312.24133925 -196.9851317 324.41947173 -236 330 C-236.77102051 330.11859375 -237.54204102 330.2371875 -238.33642578 330.359375 C-261.51809663 333.86874261 -286.84211939 333.3949948 -310 330 C-310.90089355 329.87641113 -311.80178711 329.75282227 -312.72998047 329.62548828 C-361.41604973 322.84183567 -405.47847177 303.87960504 -445 275 C-445.74862305 274.46584473 -446.49724609 273.93168945 -447.26855469 273.38134766 C-448.00235352 272.84944824 -448.73615234 272.31754883 -449.4921875 271.76953125 C-450.49934814 271.04600464 -450.49934814 271.04600464 -451.52685547 270.30786133 C-452.01299316 269.87626709 -452.49913086 269.44467285 -453 269 C-453 268.34 -453 267.68 -453 267 C-453.61875 266.690625 -454.2375 266.38125 -454.875 266.0625 C-456.25 265.375 -457.625 264.6875 -459 264 C-459 263.34 -459 262.68 -459 262 C-459.58483154 261.73590332 -460.16966309 261.47180664 -460.7722168 261.19970703 C-463.08879263 259.95218335 -464.72869907 258.60082802 -466.64453125 256.8046875 C-467.32193359 256.17046875 -467.99933594 255.53625 -468.69726562 254.8828125 C-469.39529297 254.22023438 -470.09332031 253.55765625 -470.8125 252.875 C-471.49892578 252.235625 -472.18535156 251.59625 -472.89257812 250.9375 C-477.57092777 246.52914026 -481.82380728 241.88097543 -486 237 C-487.02060582 235.85424217 -488.04395962 234.71092506 -489.0703125 233.5703125 C-505.21164368 215.45382654 -518.12629454 195.48232751 -529.4375 174.0625 C-530.18205444 172.66028198 -530.18205444 172.66028198 -530.94165039 171.22973633 C-533.81915692 165.67966268 -536.15621274 160.14850123 -538.12524414 154.21264648 C-538.89291256 151.8420131 -538.89291256 151.8420131 -541 150 C-541.38749213 147.67504723 -541.71758117 145.3400417 -542 143 C-542.30903983 141.66082739 -542.62942911 140.32346746 -543 139 C-540 140 -540 140 -538.1328125 143.53515625 C-537.45469478 145.04031625 -536.78589178 146.54969719 -536.125 148.0625 C-533.43964546 154.00731509 -530.68149902 159.59279831 -527 165 C-526.34 164.67 -525.68 164.34 -525 164 C-524.92652344 165.00933594 -524.85304688 166.01867187 -524.77734375 167.05859375 C-524.14907331 171.39551087 -522.06918206 174.54966753 -519.5625 178.0625 C-519.11729004 178.70662842 -518.67208008 179.35075684 -518.21337891 180.0144043 C-516.82185972 182.01902342 -515.41207937 184.00982761 -514 186 C-513.13092324 187.24438179 -512.26241687 188.48916216 -511.39453125 189.734375 C-504.57074689 199.46478097 -497.32126973 208.69325046 -489.3046875 217.47265625 C-487.7129599 219.21816092 -486.13566274 220.97689565 -484.5703125 222.74609375 C-483.78398437 223.63425781 -482.99765625 224.52242187 -482.1875 225.4375 C-481.47980469 226.24058594 -480.77210938 227.04367187 -480.04296875 227.87109375 C-478.07266521 230.04639497 -478.07266521 230.04639497 -475.73828125 231.66015625 C-475.16464844 232.10230469 -474.59101563 232.54445313 -474 233 C-474 233.66 -474 234.32 -474 235 C-473.11441406 235.38865234 -473.11441406 235.38865234 -472.2109375 235.78515625 C-469.83302607 237.09174716 -468.45552572 238.44545731 -466.625 240.4375 C-461.44748299 245.74949797 -455.63851631 250.14123535 -449.75976562 254.63720703 C-448.1584243 255.87731348 -446.58528474 257.15362252 -445.015625 258.43359375 C-408.9069188 287.52116263 -362.58152908 305.316568 -317 312 C-316.22543457 312.11714355 -315.45086914 312.23428711 -314.65283203 312.35498047 C-264.3619665 319.62269627 -211.14099694 310.467673 -165 290 C-164.13310547 289.62004883 -163.26621094 289.24009766 -162.37304688 288.84863281 C-142.40185508 280.01493337 -123.74284874 268.8325306 -106.61621094 255.27832031 C-105.17426592 254.13783329 -103.71702265 253.01674955 -102.2578125 251.8984375 C-87.69647338 240.59362789 -74.43986904 227.41965278 -63 213 C-62.01580078 211.81664062 -62.01580078 211.81664062 -61.01171875 210.609375 C-51.40707671 198.9837161 -43.52652851 186.03671219 -36 173 C-35.01580078 171.31777344 -35.01580078 171.31777344 -34.01171875 169.6015625 C-17.40821811 139.98810444 -8.06489064 106.03188016 -2.75 72.6875 C-2.58661133 71.67502197 -2.42322266 70.66254395 -2.25488281 69.61938477 C0.20103361 53.29068245 0.13577763 36.90837521 0.0625 20.4375 C0.0574688 18.44336051 0.05290879 16.44921978 0.04882812 14.45507812 C0.03796501 9.63668716 0.02079222 4.81835793 0 0 Z " fill="#0DDAE1" transform="translate(789,444)"/>
<path d="M0 0 C2.68309112 2.38547721 5.1579246 4.15603664 8.36328125 5.73120117 C9.96875 7.36010742 9.96875 7.36010742 11.55078125 9.29370117 C14.19578809 12.42579707 16.93943209 15.35716205 19.86328125 18.23120117 C34.13697188 32.38474289 58.5369774 57.90172893 61.36328125 78.73120117 C57.97461496 75.51080769 55.32973283 72.38184041 52.86328125 68.41870117 C47.20963445 59.72161615 40.70995371 51.07787363 33.36328125 43.73120117 C32.57953125 42.80307617 31.79578125 41.87495117 30.98828125 40.91870117 C23.63105529 32.31723847 16.09451669 23.95705119 7.36328125 16.73120117 C6.45707031 15.93713867 5.55085938 15.14307617 4.6171875 14.32495117 C-39.03264487 -23.80658 -91.49359736 -45.64558415 -148.63671875 -53.26879883 C-148.96671875 -52.60879883 -149.29671875 -51.94879883 -149.63671875 -51.26879883 C-149.96671875 -51.92879883 -150.29671875 -52.58879883 -150.63671875 -53.26879883 C-153.44675178 -53.77690189 -153.44675178 -53.77690189 -156.8984375 -53.97192383 C-157.54778259 -54.01922638 -158.19712769 -54.06652893 -158.8661499 -54.11526489 C-161.01817198 -54.26442406 -163.17064026 -54.39420115 -165.32421875 -54.51879883 C-166.06334503 -54.56304993 -166.80247131 -54.60730103 -167.56399536 -54.65289307 C-199.78676747 -56.5021781 -231.68231491 -52.22329452 -262.63671875 -43.26879883 C-263.46945312 -43.03435059 -264.3021875 -42.79990234 -265.16015625 -42.55834961 C-271.15635218 -40.82930635 -276.8781182 -38.6648123 -282.63671875 -36.26879883 C-283.42884766 -35.94911133 -284.22097656 -35.62942383 -285.03710938 -35.30004883 C-305.22115967 -27.14088913 -324.05299919 -17.11982165 -341.63671875 -4.26879883 C-342.29865234 -3.79474609 -342.96058594 -3.32069336 -343.64257812 -2.83227539 C-352.46457275 3.48663655 -360.62502326 10.20678165 -368.453125 17.72338867 C-370.6812066 19.86244438 -372.97191919 21.89116186 -375.33203125 23.88354492 C-377.74277659 25.9288643 -379.91966206 27.98432724 -381.94921875 30.41870117 C-384.70419101 33.66563276 -387.54883478 36.80078841 -390.44921875 39.91870117 C-431.53234898 85.10392912 -450.71033993 142.75370471 -454.38720703 202.88891602 C-454.64920024 205.87338265 -455.10802515 208.78328425 -455.63671875 211.73120117 C-454.97671875 212.06120117 -454.31671875 212.39120117 -453.63671875 212.73120117 C-454.29671875 212.73120117 -454.95671875 212.73120117 -455.63671875 212.73120117 C-455.47985596 213.2892041 -455.32299316 213.84720703 -455.16137695 214.42211914 C-454.60540248 216.86902773 -454.39661173 219.17245103 -454.2421875 221.67651367 C-452.89730591 241.61250177 -450.74283344 261.45769686 -445.37109375 280.75463867 C-444.63671875 283.73120117 -444.63671875 283.73120117 -444.63671875 287.73120117 C-445.29671875 287.73120117 -445.95671875 287.73120117 -446.63671875 287.73120117 C-457.00827209 260.48849731 -464.86431014 232.08272854 -465.63671875 202.73120117 C-465.65718262 202.05025391 -465.67764648 201.36930664 -465.69873047 200.66772461 C-466.27681663 178.89155327 -463.49703695 157.93588777 -458.63671875 136.73120117 C-458.45270508 135.92231445 -458.26869141 135.11342773 -458.07910156 134.2800293 C-453.45752843 114.58068058 -445.25879668 95.48688424 -435.63671875 77.73120117 C-435.27191406 77.05234863 -434.90710938 76.37349609 -434.53125 75.67407227 C-430.02752198 67.33717982 -425.30870934 59.33906681 -419.63671875 51.73120117 C-418.96125 50.80178711 -418.28578125 49.87237305 -417.58984375 48.91479492 C-407.85755702 35.6795752 -396.96150804 23.60992037 -385.63671875 11.73120117 C-384.88390625 10.93584961 -384.13109375 10.14049805 -383.35546875 9.32104492 C-379.02851241 4.86108788 -374.36484466 0.93655176 -369.51171875 -2.94067383 C-367.66775417 -4.43388428 -365.85180462 -5.96277778 -364.07421875 -7.53442383 C-290.305463 -72.29652917 -176.21950445 -86.6953439 0 0 Z " fill="#0EDAE1" transform="translate(698.63671875,275.268798828125)"/>
<path d="M0 0 C10.50623203 1.32837416 21.47572632 19.4044937 27.73535156 27.37402344 C49.43259619 55.44844865 49.43259619 55.44844865 51 67 C47.61133371 63.77960652 44.96645158 60.65063924 42.5 56.6875 C36.8463532 47.99041498 30.34667246 39.34667246 23 32 C22.21625 31.071875 21.4325 30.14375 20.625 29.1875 C17.48807603 25.51745348 14.25772618 21.93760435 11 18.375 C10.50193848 17.82481201 10.00387695 17.27462402 9.49072266 16.70776367 C7.00169404 13.99983424 4.53482223 11.58552542 1.6171875 9.33984375 C0.75351562 8.56769531 -0.11015625 7.79554688 -1 7 C-0.875 3.1875 -0.875 3.1875 0 0 Z " fill="#20DCE1" transform="translate(709,287)"/>
<path d="M0 0 C3 1 3 1 4.8671875 4.53515625 C5.54530522 6.04031625 6.21410822 7.54969719 6.875 9.0625 C9.56035454 15.00731509 12.31850098 20.59279831 16 26 C16.66 25.67 17.32 25.34 18 25 C18.06445312 25.99644531 18.12890625 26.99289062 18.1953125 28.01953125 C18.86549371 32.69081183 21.18225434 35.90773945 23.875 39.6875 C24.32230469 40.33783203 24.76960938 40.98816406 25.23046875 41.65820312 C27.41860575 44.82422437 29.66219082 47.94226945 32 51 C31 53 31 53 29 54 C29 55.98 29 57.96 29 60 C25.78406396 56.95235638 23.66417286 53.42295587 21.4375 49.625 C21.00566406 48.88983154 20.57382812 48.15466309 20.12890625 47.3972168 C14.31728349 37.30771059 8.51515083 26.58793815 4.84375 15.51171875 C4.162151 12.86539935 4.162151 12.86539935 2 11 C1.61250787 8.67504723 1.28241883 6.3400417 1 4 C0.69096017 2.66082739 0.37057089 1.32346746 0 0 Z " fill="#25DBE0" transform="translate(246,583)"/>
<path d="M0 0 C0.66 0.33 1.32 0.66 2 1 C2.48657227 2.79980469 2.48657227 2.79980469 2.81640625 5.171875 C2.94039795 6.05375488 3.06438965 6.93563477 3.19213867 7.84423828 C3.31435791 8.80313965 3.43657715 9.76204102 3.5625 10.75 C3.69180908 11.73339355 3.82111816 12.71678711 3.9543457 13.72998047 C6.30034091 32.53696697 6.51673152 51.37284155 5 70.25 C4.90460937 71.48363281 4.80921875 72.71726562 4.7109375 73.98828125 C4.47804982 76.99253233 4.24100659 79.99639123 4 83 C3.67 83 3.34 83 3 83 C3 73.1 3 63.2 3 53 C2.67 55.97 2.34 58.94 2 62 C1.34 62 0.68 62 0 62 C0.0309375 63.5778125 0.0309375 63.5778125 0.0625 65.1875 C0.01103198 68.32704904 -0.26517187 70.96883396 -1 74 C-1.33 74 -1.66 74 -2 74 C-1.93941406 73.18660156 -1.87882813 72.37320313 -1.81640625 71.53515625 C-1.5874749 68.40407974 -1.3667318 65.27253514 -1.14976501 62.14060974 C-1.01323484 60.18916716 -0.87117191 58.23811368 -0.72851562 56.28710938 C0.07182231 44.330181 0.11579745 32.41735865 0.0625 20.4375 C0.0574688 18.44336051 0.05290879 16.44921978 0.04882812 14.45507812 C0.03796501 9.63668716 0.02079222 4.81835793 0 0 Z " fill="#30DDDE" transform="translate(789,444)"/>
<path d="M0 0 C28.05 0.33 56.1 0.66 85 1 C85.495 2.98 85.495 2.98 86 5 C85.502724 4.83734146 85.005448 4.67468292 84.49310303 4.50709534 C81.03492597 3.80370465 77.62310201 3.86947754 74.11035156 3.88647461 C73.31972824 3.88632858 72.52910492 3.88618256 71.71452332 3.8860321 C69.10652911 3.88672764 66.4986067 3.89450325 63.890625 3.90234375 C62.08030232 3.9042092 60.26997913 3.90563251 58.45965576 3.90663147 C53.69869591 3.91044661 48.93776663 3.92026835 44.17681885 3.93133545 C39.31710219 3.94157113 34.45738058 3.94613371 29.59765625 3.95117188 C20.06509074 3.9618915 10.53254792 3.9789559 1 4 C0.67 2.68 0.34 1.36 0 0 Z " fill="#1FD8DD" transform="translate(390,410)"/>
<path d="M0 0 C0.12375 0.639375 0.2475 1.27875 0.375 1.9375 C0.684375 2.9584375 0.684375 2.9584375 1 4 C3.81824192 5.40912096 6.17251282 5.11183553 9.3203125 5.09765625 C11.20556641 5.09282227 11.20556641 5.09282227 13.12890625 5.08789062 C14.44761719 5.07951172 15.76632812 5.07113281 17.125 5.0625 C18.46484211 5.05748489 19.804686 5.05292201 21.14453125 5.04882812 C24.42973206 5.03701086 27.71484397 5.02053617 31 5 C30.67 5.66 30.34 6.32 30 7 C25.56251426 7.02939331 21.12505407 7.04692963 16.6875 7.0625 C14.82254883 7.07506836 14.82254883 7.07506836 12.91992188 7.08789062 C5.55138969 7.1072306 -1.67757176 6.83903809 -9 6 C-9 5.01 -9 4.02 -9 3 C-38.04 2.67 -67.08 2.34 -97 2 C-96.67 1.34 -96.34 0.68 -96 0 C-95.17129395 0.00523682 -94.34258789 0.01047363 -93.48876953 0.01586914 C-68.07234394 0.15181346 -42.67953159 -0.26466058 -17.27000427 -0.84754944 C-16.3843428 -0.86756516 -15.49868134 -0.88758087 -14.58618164 -0.90820312 C-13.81762344 -0.92596802 -13.04906525 -0.94373291 -12.25721741 -0.96203613 C-7.99166571 -1.03377793 -4.17886304 -0.95516869 0 0 Z " fill="#3FE3E8" transform="translate(379,593)"/>
<path d="M0 0 C0.33 0 0.66 0 1 0 C1.03963867 0.62116699 1.07927734 1.24233398 1.12011719 1.88232422 C2.50554973 22.82838034 4.62083421 43.74561211 10.265625 64.0234375 C11 67 11 67 11 71 C10.34 71 9.68 71 9 71 C7.55518202 67.06514764 6.12052773 63.12665996 4.6875 59.1875 C4.28337891 58.08728516 3.87925781 56.98707031 3.46289062 55.85351562 C-3 38.04115854 -3 38.04115854 -3 31 C-2.01 31 -1.02 31 0 31 C-0.08378906 30.1028125 -0.16757813 29.205625 -0.25390625 28.28125 C-1.03350388 18.72871189 -0.81513415 9.54333983 0 0 Z " fill="#31DDE2" transform="translate(243,492)"/>
<path d="M0 0 C0.33 0 0.66 0 1 0 C1.16335585 5.23419357 0.60552037 9.86306192 -0.5 14.9375 C-0.71462891 15.96327148 -0.71462891 15.96327148 -0.93359375 17.00976562 C-1.28283771 18.67449514 -1.64052946 20.33744875 -2 22 C-4 20 -4 20 -4.125 17.375 C-4.08375 16.59125 -4.0425 15.8075 -4 15 C-4.66 15 -5.32 15 -6 15 C-7.32 18.63 -8.64 22.26 -10 26 C-10.66 26 -11.32 26 -12 26 C-12.33 27.65 -12.66 29.3 -13 31 C-14.16445606 27.50663182 -13.77002998 26.37173851 -12.78515625 22.89453125 C-12.51123047 21.91162109 -12.23730469 20.92871094 -11.95507812 19.91601562 C-11.66052734 18.89185547 -11.36597656 17.86769531 -11.0625 16.8125 C-10.77181641 15.77673828 -10.48113281 14.74097656 -10.18164062 13.67382812 C-9.46196023 11.11365361 -8.7344788 8.55596089 -8 6 C-7.34 6.33 -6.68 6.66 -6 7 C-5.01 5.35 -4.02 3.7 -3 2 C-2.34 2.33 -1.68 2.66 -1 3 C-0.67 2.01 -0.34 1.02 0 0 Z " fill="#22DDE2" transform="translate(790,534)"/>
<path d="M0 0 C4.65713291 4.21114596 7.7715438 8.9931557 11.0625 14.3125 C11.57876953 15.12912109 12.09503906 15.94574219 12.62695312 16.78710938 C15.71917598 21.7307268 18.66148605 26.65232595 21 32 C20.67 32.99 20.34 33.98 20 35 C19.39414062 34.14019531 18.78828125 33.28039062 18.1640625 32.39453125 C13.30548687 25.53151207 8.37120623 18.76028408 3.13720703 12.17700195 C1.24747215 9.77094397 -0.02233788 7.93298635 -1 5 C-0.01 5 0.98 5 2 5 C1.34 3.35 0.68 1.7 0 0 Z " fill="#33DFE2" transform="translate(739,319)"/>
<path d="M0 0 C0 0.33 0 0.66 0 1 C-15.18 1.33 -30.36 1.66 -46 2 C-46 2.33 -46 2.66 -46 3 C-50.95 2.67 -55.9 2.34 -61 2 C-61 1.67 -61 1.34 -61 1 C-40.56001641 -1.12951893 -20.49111034 -1.64398593 0 0 Z " fill="#40E0E4" transform="translate(538,206)"/>
<path d="M0 0 C3 1 3 1 4.04321289 2.59472656 C4.3499292 3.26987305 4.65664551 3.94501953 4.97265625 4.640625 C5.31490234 5.38183594 5.65714844 6.12304688 6.00976562 6.88671875 C6.53086914 8.05654297 6.53086914 8.05654297 7.0625 9.25 C7.5894043 10.39662109 7.5894043 10.39662109 8.12695312 11.56640625 C9.85100767 15.34042356 11.5054336 19.12806632 13 23 C11.68 23.99 10.36 24.98 9 26 C8.66226563 25.08476563 8.32453125 24.16953125 7.9765625 23.2265625 C7.53054687 22.03804687 7.08453125 20.84953125 6.625 19.625 C6.18414062 18.44164062 5.74328125 17.25828125 5.2890625 16.0390625 C4.2049658 12.95506554 4.2049658 12.95506554 2 11 C1.61250787 8.67504723 1.28241883 6.3400417 1 4 C0.69096017 2.66082739 0.37057089 1.32346746 0 0 Z " fill="#38DADD" transform="translate(246,583)"/>
<path d="M0 0 C0.33 0 0.66 0 1 0 C1.0270491 3.06255961 1.04686298 6.1248786 1.0625 9.1875 C1.07087891 10.05181641 1.07925781 10.91613281 1.08789062 11.80664062 C1.10396812 16.00286769 1.07559038 19.90936886 0 24 C-0.66 22.68 -1.32 21.36 -2 20 C-2.66 22.64 -3.32 25.28 -4 28 C-4.33 28 -4.66 28 -5 28 C-4.48758893 21.97099313 -3.930215 15.97995357 -3 10 C-2.34 10 -1.68 10 -1 10 C-1.01160156 9.36191406 -1.02320313 8.72382813 -1.03515625 8.06640625 C-1.04869141 6.82697266 -1.04869141 6.82697266 -1.0625 5.5625 C-1.07410156 4.73878906 -1.08570313 3.91507812 -1.09765625 3.06640625 C-1 1 -1 1 0 0 Z " fill="#05D5D8" transform="translate(792,496)"/>
<path d="M0 0 C0 0.33 0 0.66 0 1 C-4.2687713 1.68032553 -8.54027987 2.34170892 -12.8125 3 C-14.6059082 3.28617188 -14.6059082 3.28617188 -16.43554688 3.578125 C-23.68956584 4.68500528 -30.66291756 5.2704569 -38 5 C-38 4.67 -38 4.34 -38 4 C-30.13678639 1.54274575 -22.17326473 1.3769224 -14 1 C-14 0.67 -14 0.34 -14 0 C-8.97703996 -1.13016601 -5.02125926 -0.77916092 0 0 Z " fill="#32DCE2" transform="translate(572,770)"/>
<path d="M0 0 C0.99 0.495 0.99 0.495 2 1 C3.6993911 10.43988085 2.96788414 20.28308529 2.5625 29.8125 C2.50908455 31.19854163 2.45634677 32.58460954 2.40429688 33.97070312 C2.27615196 37.31412053 2.14127569 40.65711614 2 44 C1.34 43.67 0.68 43.34 0 43 C0 28.81 0 14.62 0 0 Z " fill="#4FE0E0" transform="translate(789,444)"/>
<path d="M0 0 C0.66 0.33 1.32 0.66 2 1 C1.4476391 7.87304767 0.01284333 13.99940729 -2.0625 20.5625 C-2.34416016 21.47580078 -2.62582031 22.38910156 -2.91601562 23.33007812 C-3.60351822 25.55572212 -4.29825282 27.77881482 -5 30 C-5.33 30 -5.66 30 -6 30 C-6.45473501 23.32107956 -4.76578323 17.4694297 -3 11.0625 C-2.71382812 9.99708984 -2.42765625 8.93167969 -2.1328125 7.83398438 C-1.42962006 5.22045248 -0.71850443 2.60935585 0 0 Z " fill="#23D9DD" transform="translate(784,560)"/>
<path d="M0 0 C0.33 0 0.66 0 1 0 C1.84023188 4.35332736 2.10770995 8.44442519 2.0625 12.875 C2.05347656 14.02742187 2.04445313 15.17984375 2.03515625 16.3671875 C2.02355469 17.23601563 2.01195312 18.10484375 2 19 C1.67 19 1.34 19 1 19 C0.67 17.02 0.34 15.04 0 13 C-1.65 13.33 -3.3 13.66 -5 14 C-4.67 10.7 -4.34 7.4 -4 4 C-3.34 4.33 -2.68 4.66 -2 5 C-1.34 3.35 -0.68 1.7 0 0 Z " fill="#20DCE2" transform="translate(790,514)"/>
<path d="M0 0 C3.47914941 -0.02887814 6.95826831 -0.04675687 10.4375 -0.0625 C11.92733398 -0.07506836 11.92733398 -0.07506836 13.44726562 -0.08789062 C14.39150391 -0.09111328 15.33574219 -0.09433594 16.30859375 -0.09765625 C17.62041626 -0.10551147 17.62041626 -0.10551147 18.95874023 -0.11352539 C21 0 21 0 22 1 C23.55948542 1.15686249 25.12542668 1.25076639 26.69140625 1.31640625 C28.10776367 1.37924805 28.10776367 1.37924805 29.55273438 1.44335938 C31.04256836 1.50233398 31.04256836 1.50233398 32.5625 1.5625 C34.05813477 1.62727539 34.05813477 1.62727539 35.58398438 1.69335938 C38.0558415 1.79980298 40.5278031 1.90181928 43 2 C43 2.33 43 2.66 43 3 C28.50794151 3.24187541 14.37698562 2.89884716 0 1 C0 0.67 0 0.34 0 0 Z " fill="#43E3E7" transform="translate(357,648)"/>
<path d="M0 0 C0.99 0 1.98 0 3 0 C3.30292969 0.62648438 3.60585938 1.25296875 3.91796875 1.8984375 C6.43358882 7.07493961 6.43358882 7.07493961 10.8125 10.5625 C11.534375 10.706875 12.25625 10.85125 13 11 C13.1875 13.375 13.1875 13.375 13 16 C12.01 16.66 11.02 17.32 10 18 C8.32982236 15.18957076 6.66445191 12.37632343 5 9.5625 C4.28457031 8.35883789 4.28457031 8.35883789 3.5546875 7.13085938 C2.87792969 5.98520508 2.87792969 5.98520508 2.1875 4.81640625 C1.76855469 4.10943604 1.34960938 3.40246582 0.91796875 2.67407227 C0 1 0 1 0 0 Z " fill="#20D8DC" transform="translate(599,622)"/>
<path d="M0 0 C-2.62489282 1.74992854 -4.5949375 2.67400451 -7.52734375 3.69140625 C-8.40197266 3.99626953 -9.27660156 4.30113281 -10.17773438 4.61523438 C-11.08845703 4.92783203 -11.99917969 5.24042969 -12.9375 5.5625 C-13.84435547 5.87896484 -14.75121094 6.19542969 -15.68554688 6.52148438 C-19.43578004 7.82123406 -23.13370988 9.08908238 -27 10 C-26.67 9.01 -26.34 8.02 -26 7 C-24.35 7 -22.7 7 -21 7 C-21 6.34 -21 5.68 -21 5 C-18.81716075 4.15229544 -16.63003921 3.32192453 -14.4375 2.5 C-13.21933594 2.0359375 -12.00117188 1.571875 -10.74609375 1.09375 C-6.9581081 -0.01223121 -3.92096767 -0.20185162 0 0 Z " fill="#30DDE2" transform="translate(436,231)"/>
<path d="M0 0 C1.79041248 3.23831126 2.73750239 6.41415108 3.625 10 C3.88539063 11.03125 4.14578125 12.0625 4.4140625 13.125 C5 16 5 16 5 20 C4.34 20 3.68 20 3 20 C2.16260219 17.8765984 1.33019717 15.7512272 0.5 13.625 C-0.19609375 11.84996094 -0.19609375 11.84996094 -0.90625 10.0390625 C-2 7 -2 7 -2 5 C-1.34 5 -0.68 5 0 5 C0 3.35 0 1.7 0 0 Z " fill="#40DDE0" transform="translate(249,543)"/>
<path d="M0 0 C0.33 0 0.66 0 1 0 C1.97159933 7.68604474 2.10920422 15.25863399 2 23 C1.67 23 1.34 23 1 23 C0.67 26.3 0.34 29.6 0 33 C-0.33 33 -0.66 33 -1 33 C-1.10611887 21.94005573 -1.00708069 11.0239368 0 0 Z " fill="#43E1E8" transform="translate(234,445)"/>
<path d="M0 0 C0.33 1.32 0.66 2.64 1 4 C0.34 4 -0.32 4 -1 4 C-1.1546875 5.3303125 -1.1546875 5.3303125 -1.3125 6.6875 C-2.02335841 10.11254509 -3.13081165 12.08406617 -5 15 C-5.33 15.86625 -5.66 16.7325 -6 17.625 C-7.01781114 20.04230145 -8.03462304 21.30262899 -10 23 C-9.52390451 18.2390451 -8.04855657 14.83812135 -5.7421875 10.734375 C-5.49726562 10.16203125 -5.25234375 9.5896875 -5 9 C-5.33 8.34 -5.66 7.68 -6 7 C-5.01 7 -4.02 7 -3 7 C-2.690625 6.21625 -2.38125 5.4325 -2.0625 4.625 C-1 2 -1 2 0 0 Z " fill="#15D3D9" transform="translate(598,532)"/>
<path d="M0 0 C5.75 0.75 5.75 0.75 8 3 C8.125 6.625 8.125 6.625 8 10 C7.01 10.495 7.01 10.495 6 11 C5.731875 10.360625 5.46375 9.72125 5.1875 9.0625 C4.11332248 6.66868314 4.11332248 6.66868314 1 6 C0.67 4.02 0.34 2.04 0 0 Z " fill="#11DAE0" transform="translate(265,624)"/>
<path d="M0 0 C3.49202811 1.16400937 3.72730857 1.74268386 5.48046875 4.81640625 C5.92197266 5.58017578 6.36347656 6.34394531 6.81835938 7.13085938 C7.27017578 7.93330078 7.72199219 8.73574219 8.1875 9.5625 C8.65091797 10.36880859 9.11433594 11.17511719 9.59179688 12.00585938 C10.73603246 13.99942446 11.87163231 15.99742431 13 18 C12.01 18.33 11.02 18.66 10 19 C8.70425129 16.77312024 7.41332692 14.54366825 6.125 12.3125 C5.76019531 11.68666016 5.39539063 11.06082031 5.01953125 10.41601562 C3.06258803 7.01805058 1.34392261 3.69932381 0 0 Z " fill="#20D7DC" transform="translate(533,397)"/>
<path d="M0 0 C4.81600823 0.76245421 9.24615702 2.41279856 13.8125 4.0625 C14.60076172 4.34416016 15.38902344 4.62582031 16.20117188 4.91601562 C18.13522289 5.60758538 20.06776488 6.30337278 22 7 C22 7.33 22 7.66 22 8 C16.26410029 8.35802755 12.2949644 7.27989617 7.0625 5 C6.37865234 4.71382812 5.69480469 4.42765625 4.99023438 4.1328125 C3.32214731 3.43291583 1.66037517 2.71800007 0 2 C0 1.34 0 0.68 0 0 Z " fill="#21D8DD" transform="translate(406,739)"/>
<path d="M0 0 C0.66 0.33 1.32 0.66 2 1 C0.62394084 5.76551013 -1.46778066 9.7248553 -4.125 13.875 C-4.49753906 14.46796875 -4.87007812 15.0609375 -5.25390625 15.671875 C-6.16365 17.1181343 -7.08103798 18.55958046 -8 20 C-8.6171875 18.1875 -8.6171875 18.1875 -9 16 C-7.7260411 13.96166576 -6.38938077 11.96147874 -5 10 C-4.23060319 7.77397385 -4.23060319 7.77397385 -4 6 C-3.34 6 -2.68 6 -2 6 C-1.34 4.02 -0.68 2.04 0 0 Z " fill="#28DBE0" transform="translate(647,569)"/>
<path d="M0 0 C0.99 0 1.98 0 3 0 C4.36965208 2.24179377 5.72052808 4.49172338 7.0625 6.75 C7.45244141 7.38421875 7.84238281 8.0184375 8.24414062 8.671875 C11.08862881 13.50498766 11.08862881 13.50498766 10.60327148 16.21582031 C10.3046521 17.09898926 10.3046521 17.09898926 10 18 C9.37351562 16.94039063 8.74703125 15.88078125 8.1015625 14.7890625 C7.27619766 13.4009489 6.45066826 12.01293314 5.625 10.625 C5.2125 9.92632812 4.8 9.22765625 4.375 8.5078125 C3.97539063 7.8375 3.57578125 7.1671875 3.1640625 6.4765625 C2.79748535 5.85861816 2.4309082 5.24067383 2.05322266 4.60400391 C0.96740106 2.83209267 0.96740106 2.83209267 -1 1 C-0.67 0.67 -0.34 0.34 0 0 Z " fill="#26D9DE" transform="translate(518,486)"/>
<path d="M0 0 C6.625 -0.125 6.625 -0.125 10 1 C10 1.66 10 2.32 10 3 C12.64 3.33 15.28 3.66 18 4 C18 4.66 18 5.32 18 6 C18.78375 5.938125 19.5675 5.87625 20.375 5.8125 C21.674375 5.9053125 21.674375 5.9053125 23 6 C23.99 7.485 23.99 7.485 25 9 C16.58782396 6.56541729 8.29613284 3.79856214 0 1 C0 0.67 0 0.34 0 0 Z " fill="#33DCE3" transform="translate(600,231)"/>
<path d="M0 0 C1.65 1.32 3.3 2.64 5 4 C5 3.01 5 2.02 5 1 C6.65 1.33 8.3 1.66 10 2 C10 5 10 8 10 11 C8.8944811 10.06409496 7.79064547 9.12620142 6.6875 8.1875 C6.07261719 7.66542969 5.45773437 7.14335937 4.82421875 6.60546875 C1.48047722 3.6626898 1.48047722 3.6626898 0 2 C0 1.34 0 0.68 0 0 Z " fill="#31DFE4" transform="translate(720,304)"/>
<path d="M0 0 C3.49234244 -0.09978121 6.59437148 0.22157062 10 1 C10.33 2.32 10.66 3.64 11 5 C7.5980513 7.09350689 4.94727588 7.17942163 1 7 C1 6.01 1 5.02 1 4 C1.99 3.67 2.98 3.34 4 3 C2.68 2.67 1.36 2.34 0 2 C0 1.34 0 0.68 0 0 Z " fill="#22DEE0" transform="translate(369,592)"/>
<path d="M0 0 C1.33506596 4.00519788 0.03620044 6.62531964 -1.3125 10.4375 C-1.53873047 11.10587891 -1.76496094 11.77425781 -1.99804688 12.46289062 C-3.13218271 15.76070924 -4.33015224 18.9346926 -6 22 C-7.53921449 17.25332058 -6.21090884 13.6851168 -4.5625 9.1875 C-4.19801758 8.14819336 -4.19801758 8.14819336 -3.82617188 7.08789062 C-3.22830384 5.38806975 -2.61561518 3.69347428 -2 2 C-1.34 2 -0.68 2 0 2 C0 1.34 0 0.68 0 0 Z " fill="#2DDCE1" transform="translate(258,396)"/>
<path d="M0 0 C3.85119203 1.28373068 4.4758203 2.79911243 6.625 6.1875 C7.23601562 7.12980469 7.84703125 8.07210938 8.4765625 9.04296875 C10.05281879 12.10252262 10.62702027 14.59782002 11 18 C7.91434503 15.28423427 5.92712681 11.91344172 3.8125 8.4375 C3.44447266 7.84775391 3.07644531 7.25800781 2.69726562 6.65039062 C0 2.25169585 0 2.25169585 0 0 Z " fill="#24D9DD" transform="translate(368,376)"/>
<path d="M0 0 C4.45673159 0.49871064 6.57687178 2.02004362 9.8125 5.0625 C10.60269531 5.79597656 11.39289063 6.52945313 12.20703125 7.28515625 C13.09455078 8.13400391 13.09455078 8.13400391 14 9 C13.67 9.99 13.34 10.98 13 12 C12.01 11.34 11.02 10.68 10 10 C10 9.34 10 8.68 10 8 C9.38125 7.690625 8.7625 7.38125 8.125 7.0625 C6.75 6.375 5.375 5.6875 4 5 C4 4.34 4 3.68 4 3 C2.68 2.34 1.36 1.68 0 1 C0 0.67 0 0.34 0 0 Z " fill="#25D8DE" transform="translate(326,703)"/>
<path d="M0 0 C1.88391785 3.26545761 2.49287967 6.28111761 3 10 C3.66 10 4.32 10 5 10 C5.07654536 14.51617599 5.10228696 18.59085217 4 23 C3.67 23 3.34 23 3 23 C2.4935186 20.29273634 1.994649 17.58442876 1.5 14.875 C1.35691406 14.11445313 1.21382812 13.35390625 1.06640625 12.5703125 C0.29687544 8.31957086 -0.16644376 4.34140803 0 0 Z " fill="#3BDDE2" transform="translate(235,494)"/>
<path d="M0 0 C0.99 0.33 1.98 0.66 3 1 C4.31225809 4.93677426 3.3393954 6.7794262 2.0625 10.6875 C1.49208984 12.45673828 1.49208984 12.45673828 0.91015625 14.26171875 C0.60980469 15.16535156 0.30945313 16.06898438 0 17 C-2.62113109 13.06830336 -1.88205685 11.39689982 -1.125 6.8125 C-0.92132812 5.54019531 -0.71765625 4.26789063 -0.5078125 2.95703125 C-0.34023438 1.98121094 -0.17265625 1.00539063 0 0 Z " fill="#1AD7DD" transform="translate(597,503)"/>
<path d="M0 0 C0.66 0.33 1.32 0.66 2 1 C1.60167969 1.59167969 1.20335937 2.18335938 0.79296875 2.79296875 C-0.00173828 3.97826172 -0.00173828 3.97826172 -0.8125 5.1875 C-1.36164062 6.00605469 -1.91078125 6.82460938 -2.4765625 7.66796875 C-3.61125356 9.40491891 -4.67033852 11.19171292 -5.6875 13 C-7 15 -7 15 -10 16 C-8.63649571 12.35524815 -6.998536 9.08755513 -5 5.75 C-4.484375 4.87859375 -3.96875 4.0071875 -3.4375 3.109375 C-2 1 -2 1 0 0 Z " fill="#1BD2D7" transform="translate(695,366)"/>
<path d="M0 0 C0.82707306 2.36988243 1.12634 3.61730731 0.328125 6.03515625 C-0.02765625 6.70417969 -0.3834375 7.37320312 -0.75 8.0625 C-1.26820313 9.06990234 -1.26820313 9.06990234 -1.796875 10.09765625 C-3.01418522 12.02242923 -4.33078081 13.4602892 -6 15 C-7 12 -7 12 -5.56640625 9.08203125 C-4.90511719 8.00308594 -4.24382813 6.92414063 -3.5625 5.8125 C-2.90378906 4.72582031 -2.24507812 3.63914062 -1.56640625 2.51953125 C-1.04949219 1.68808594 -0.53257812 0.85664063 0 0 Z " fill="#21D8DD" transform="translate(626,482)"/>
<path d="M0 0 C0.66 0.33 1.32 0.66 2 1 C1.42176904 5.06225548 0.10882263 7.84762346 -2.0625 11.3125 C-2.61035156 12.19550781 -3.15820312 13.07851563 -3.72265625 13.98828125 C-4.14417969 14.65214844 -4.56570313 15.31601562 -5 16 C-6.25348607 13.04893565 -6.01044806 12.02593537 -4.78515625 8.984375 C-4.21667969 7.91703125 -3.64820313 6.8496875 -3.0625 5.75 C-2.49660156 4.67234375 -1.93070312 3.5946875 -1.34765625 2.484375 C-0.90292969 1.66453125 -0.45820313 0.8446875 0 0 Z " fill="#24D9DE" transform="translate(479,600)"/>
<path d="M0 0 C3.23077598 3.80770026 5.8043091 7.52729632 8 12 C7.60546875 14.21484375 7.60546875 14.21484375 7 16 C5.63304778 13.90320896 4.28153009 11.7989062 2.9375 9.6875 C2.54755859 9.09259766 2.15761719 8.49769531 1.75585938 7.88476562 C0.75788505 6.30390365 -0.12868696 4.65405288 -1 3 C-0.67 2.01 -0.34 1.02 0 0 Z " fill="#1AD4D9" transform="translate(489,435)"/>
<path d="M0 0 C0.703125 1.64453125 0.703125 1.64453125 1 4 C-0.328125 6.76171875 -0.328125 6.76171875 -2.25 9.6875 C-2.87390625 10.66074219 -3.4978125 11.63398438 -4.140625 12.63671875 C-6 15 -6 15 -9 16 C-7.56691865 12.04093183 -5.66858051 8.71281819 -3.375 5.1875 C-2.74335938 4.21167969 -2.11171875 3.23585938 -1.4609375 2.23046875 C-0.73777344 1.12638672 -0.73777344 1.12638672 0 0 Z " fill="#2BD8DC" transform="translate(275,333)"/>
<path d="M0 0 C5.94 0 11.88 0 18 0 C18 0.66 18 1.32 18 2 C19.32 2.33 20.64 2.66 22 3 C19.79142945 2.85780436 17.58315013 2.71108153 15.375 2.5625 C14.14523437 2.48128906 12.91546875 2.40007812 11.6484375 2.31640625 C8.38467612 2.03336056 5.22056141 1.58961047 2 1 C1.67 1.66 1.34 2.32 1 3 C0.67 2.01 0.34 1.02 0 0 Z " fill="#3AE2EA" transform="translate(548,221)"/>
<path d="M0 0 C3.10000819 1.06478542 3.97462191 1.95797481 5.703125 4.8203125 C6.21359375 5.91085937 6.7240625 7.00140625 7.25 8.125 C8.03117188 9.76855469 8.03117188 9.76855469 8.828125 11.4453125 C9.40820312 12.70988281 9.40820312 12.70988281 10 14 C9.01 14 8.02 14 7 14 C5.17578125 11.4453125 5.17578125 11.4453125 3.3125 8.125 C2.68988281 7.03445313 2.06726563 5.94390625 1.42578125 4.8203125 C0 2 0 2 0 0 Z " fill="#22D8DD" transform="translate(590,606)"/>
<path d="M0 0 C0.71484375 1.609375 0.71484375 1.609375 1 4 C-0.43359375 7.015625 -0.43359375 7.015625 -2.4375 10.25 C-3.09621094 11.32765625 -3.75492188 12.4053125 -4.43359375 13.515625 C-4.95050781 14.33546875 -5.46742188 15.1553125 -6 16 C-6.71484375 14.390625 -6.71484375 14.390625 -7 12 C-5.56640625 8.984375 -5.56640625 8.984375 -3.5625 5.75 C-2.90378906 4.67234375 -2.24507812 3.5946875 -1.56640625 2.484375 C-1.04949219 1.66453125 -0.53257812 0.8446875 0 0 Z " fill="#21D8DC" transform="translate(660,547)"/>
<path d="M0 0 C2.32509781 2.13802098 3.82167236 4.18598137 5.25 7 C5.60578125 7.680625 5.9615625 8.36125 6.328125 9.0625 C7 11 7 11 6 14 C0.11816193 7.10284464 0.11816193 7.10284464 -0.375 2.5 C-0.25125 1.675 -0.1275 0.85 0 0 Z " fill="#41DEE0" transform="translate(753,340)"/>
<path d="M0 0 C-4.65285818 3.10190545 -9.41532676 4.33846504 -15 4 C-15 3.34 -15 2.68 -15 2 C-13.44240657 1.46467177 -11.87861955 0.94734622 -10.3125 0.4375 C-9.44238281 0.14746094 -8.57226562 -0.14257812 -7.67578125 -0.44140625 C-4.75368926 -1.05141961 -2.85599447 -0.77703633 0 0 Z " fill="#2BDCE2" transform="translate(596,764)"/>
<path d="M0 0 C5.19644079 1.59890486 10.06612142 3.74138003 15 6 C15 6.33 15 6.66 15 7 C9.17728663 7.59720137 5.0790596 5.528243 0 3 C0 2.01 0 1.02 0 0 Z " fill="#2BDCE1" transform="translate(387,730)"/>
<path d="M0 0 C2.62117509 1.31058754 3.24199164 2.78182491 4.6875 5.3125 C5.14511719 6.09238281 5.60273438 6.87226563 6.07421875 7.67578125 C7.1236295 10.31037786 6.98464547 11.3921814 6 14 C5.59007812 13.30132812 5.18015625 12.60265625 4.7578125 11.8828125 C4.21898437 10.97273438 3.68015625 10.06265625 3.125 9.125 C2.59132813 8.22007812 2.05765625 7.31515625 1.5078125 6.3828125 C0.08024648 3.93396718 0.08024648 3.93396718 -2 2 C-1.34 1.34 -0.68 0.68 0 0 Z " fill="#21D7DD" transform="translate(476,414)"/>
<path d="M0 0 C3.39417765 3.12621626 5.6062718 5.56541027 7 10 C5.68 9.34 4.36 8.68 3 8 C2.67 8.66 2.34 9.32 2 10 C0.5 8.625 0.5 8.625 -1 7 C-1 6.34 -1 5.68 -1 5 C-0.01 5 0.98 5 2 5 C1.34 3.35 0.68 1.7 0 0 Z " fill="#38DFE4" transform="translate(739,319)"/>
<path d="M0 0 C0.33 0 0.66 0 1 0 C1.33 7.59 1.66 15.18 2 23 C1.67 22.01 1.34 21.02 1 20 C0.34 20 -0.32 20 -1 20 C-0.67 13.4 -0.34 6.8 0 0 Z " fill="#51E5EA" transform="translate(243,492)"/>
<path d="M0 0 C0.99 0.66 1.98 1.32 3 2 C0.87717331 3.00460531 -1.24833021 4.00355602 -3.375 5 C-5.15003906 5.8353125 -5.15003906 5.8353125 -6.9609375 6.6875 C-10 8 -10 8 -12 8 C-12 7.34 -12 6.68 -12 6 C-8.04 4.02 -4.08 2.04 0 0 Z " fill="#27DAE0" transform="translate(405,240)"/>
<path d="M0 0 C1.91635217 -0.05423638 3.83314925 -0.09289963 5.75 -0.125 C7.35101562 -0.15980469 7.35101562 -0.15980469 8.984375 -0.1953125 C11.95022828 -0.00322356 13.55204664 0.36421808 16 2 C16.33 2.66 16.66 3.32 17 4 C15.10399631 3.68853528 13.20820413 3.37578283 11.3125 3.0625 C10.25675781 2.88847656 9.20101562 2.71445313 8.11328125 2.53515625 C5.39750396 2.06832879 2.69875765 1.55577384 0 1 C0 0.67 0 0.34 0 0 Z " fill="#39DFE2" transform="translate(570,224)"/>
<path d="M0 0 C1.953125 0.171875 1.953125 0.171875 4.25 0.75 C5.44689453 1.04777344 5.44689453 1.04777344 6.66796875 1.3515625 C9.48331779 2.13438987 12.24970885 3.012716 15 4 C15 4.33 15 4.66 15 5 C9.08507728 4.54775239 3.64800112 3.8417395 -2 2 C-1.34 1.34 -0.68 0.68 0 0 Z " fill="#2DDBE0" transform="translate(589,216)"/>
<path d="M0 0 C3.59644423 1.19881474 4.49927278 2.75151043 6.28125 6.01171875 C7.42305268 9.17029248 6.78038794 11.81341593 6 15 C5.67 15 5.34 15 5 15 C4.731875 13.783125 4.46375 12.56625 4.1875 11.3125 C3.31435043 7.76336686 1.99410785 5.08180304 0 2 C0 1.34 0 0.68 0 0 Z " fill="#1CD7DB" transform="translate(479,444)"/>
<path d="M0 0 C-0.99 0.33 -1.98 0.66 -3 1 C-3 1.66 -3 2.32 -3 3 C-7.95 3 -12.9 3 -18 3 C-18 2.67 -18 2.34 -18 2 C-15.93827387 1.66191314 -13.8755797 1.32972639 -11.8125 1 C-10.66394531 0.814375 -9.51539063 0.62875 -8.33203125 0.4375 C-5.49584607 0.06510523 -2.85280436 -0.08596021 0 0 Z " fill="#37DEE3" transform="translate(565,754)"/>
<path d="M0 0 C0.66 0 1.32 0 2 0 C1.39363767 5.76044212 -0.75658279 10.72014369 -3 16 C-3.33 16 -3.66 16 -4 16 C-4 14.02 -4 12.04 -4 10 C-3.34 10 -2.68 10 -2 10 C-1.855625 8.906875 -1.71125 7.81375 -1.5625 6.6875 C-1 3 -1 3 0 0 Z " fill="#31DEE3" transform="translate(776,590)"/>
<path d="M0 0 C1.31225809 3.93677426 0.3393954 5.7794262 -0.9375 9.6875 C-1.50791016 11.45673828 -1.50791016 11.45673828 -2.08984375 13.26171875 C-2.39019531 14.16535156 -2.69054687 15.06898438 -3 16 C-3.33 16 -3.66 16 -4 16 C-4.21192221 10.80790596 -3.5912689 6.873261 -2 2 C-1.34 2 -0.68 2 0 2 C0 1.34 0 0.68 0 0 Z " fill="#34DEE2" transform="translate(782,574)"/>
<path d="M0 0 C2.95051654 3.45922629 5.25855517 6.7838704 7 11 C6.67 11.99 6.34 12.98 6 14 C4.98915735 12.42356682 3.99169489 10.8385483 3 9.25 C2.443125 8.36828125 1.88625 7.4865625 1.3125 6.578125 C0 4 0 4 0 0 Z " fill="#24D7DC" transform="translate(498,450)"/>
<path d="M0 0 C1.60746056 0.42523816 3.21089836 0.86570126 4.8125 1.3125 C6.15248047 1.67794922 6.15248047 1.67794922 7.51953125 2.05078125 C10.05247738 3.0200819 11.2716496 3.95009604 13 6 C8.16371695 5.00956295 3.52381127 4.04301154 -1 2 C-0.67 1.34 -0.34 0.68 0 0 Z " fill="#30DBE2" transform="translate(413,755)"/>
<path d="M0 0 C0.66 0.33 1.32 0.66 2 1 C1.67 1.66 1.34 2.32 1 3 C1.928125 3.37125 1.928125 3.37125 2.875 3.75 C5.41465893 5.24391702 6.09909878 6.21539622 7 9 C6.54296875 11.1328125 6.54296875 11.1328125 6 13 C4.80286983 11.21475351 3.61752721 9.4215972 2.4375 7.625 C1.44556641 6.12839844 1.44556641 6.12839844 0.43359375 4.6015625 C-0.03949219 3.74304688 -0.51257813 2.88453125 -1 2 C-0.67 1.34 -0.34 0.68 0 0 Z " fill="#30DCDF" transform="translate(279,593)"/>
<path d="M0 0 C0.33 0 0.66 0 1 0 C0.67 5.61 0.34 11.22 0 17 C-2.13586678 13.79619983 -2.23132175 12.98060033 -2.125 9.3125 C-2.10695312 8.50425781 -2.08890625 7.69601562 -2.0703125 6.86328125 C-2.04710937 6.24839844 -2.02390625 5.63351562 -2 5 C-1.34 5 -0.68 5 0 5 C0 3.35 0 1.7 0 0 Z " fill="#39E0E5" transform="translate(245,447)"/>
<path d="M0 0 C0.66 0.33 1.32 0.66 2 1 C-0.57784846 3.64752004 -2.91648098 5.94432065 -6 8 C-7.32 7.67 -8.64 7.34 -10 7 C-6.7 4.69 -3.4 2.38 0 0 Z " fill="#23D9DE" transform="translate(356,252)"/>
<path d="M0 0 C-3.7559214 3.42931954 -8.23466745 4.56429083 -13 6 C-12 3 -12 3 -8.75 1.3125 C-5.45873369 0.16055679 -3.4127883 -0.31025348 0 0 Z " fill="#28DBE0" transform="translate(635,749)"/>
<path d="M0 0 C0.66 0.99 1.32 1.98 2 3 C1.40844669 4.31823302 0.80128537 5.62947051 0.1875 6.9375 C-0.14894531 7.66839844 -0.48539062 8.39929688 -0.83203125 9.15234375 C-2 11 -2 11 -5 12 C-3.85814266 7.52040582 -2.56984833 3.85477249 0 0 Z " fill="#27D9DF" transform="translate(260,359)"/>
<path d="M0 0 C-2.90600261 1.25664978 -4.79604584 2 -8 2 C-8 2.66 -8 3.32 -8 4 C-12.455 4.495 -12.455 4.495 -17 5 C-14.15819378 3.10546252 -11.68435185 1.99807186 -8.5 0.8125 C-7.5409375 0.44769531 -6.581875 0.08289063 -5.59375 -0.29296875 C-3 -1 -3 -1 0 0 Z " fill="#3DDFE4" transform="translate(427,220)"/>
<path d="M0 0 C0 0.66 0 1.32 0 2 C2.97 2 5.94 2 9 2 C8.67 2.66 8.34 3.32 8 4 C6.41590006 3.88512252 4.83271037 3.75765492 3.25 3.625 C2.36828125 3.55539062 1.4865625 3.48578125 0.578125 3.4140625 C-1.99066382 3.00149945 -3.75841015 2.28839043 -6 1 C-4 0 -4 0 0 0 Z " fill="#2ADDE4" transform="translate(349,644)"/>
<path d="M0 0 C0.66 0 1.32 0 2 0 C2.33 2.97 2.66 5.94 3 9 C2.01 8.67 1.02 8.34 0 8 C-1.125 2.25 -1.125 2.25 0 0 Z " fill="#1DD7D9" transform="translate(246,539)"/>
<path d="M0 0 C0.75 1.5625 0.75 1.5625 1 4 C-0.02332869 6.54719859 -1.27272296 8.86333587 -3 11 C-3.99 11.33 -4.98 11.66 -6 12 C-4.43358249 7.69235185 -2.31663844 3.93828536 0 0 Z " fill="#2BD9DD" transform="translate(607,516)"/>
<path d="M0 0 C2.4375 0.6875 2.4375 0.6875 5 2 C5.8125 4.625 5.8125 4.625 6 7 C3.5625 6.3125 3.5625 6.3125 1 5 C0.1875 2.375 0.1875 2.375 0 0 Z " fill="#23DBDE" transform="translate(742,327)"/>
<path d="M0 0 C0.66 0.99 1.32 1.98 2 3 C-0.97 5.475 -0.97 5.475 -4 8 C-4.66 7.34 -5.32 6.68 -6 6 C-4.02 4.02 -2.04 2.04 0 0 Z " fill="#1FDBE0" transform="translate(709,676)"/>
<path d="M0 0 C2.08466413 3.38757921 2.42905061 6.05273438 2 10 C1.01 10.66 0.02 11.32 -1 12 C-1.33 9.69 -1.66 7.38 -2 5 C-1.67 5 -1.34 5 -1 5 C-0.67 3.35 -0.34 1.7 0 0 Z " fill="#04D5D9" transform="translate(244,521)"/>
<path d="M0 0 C-2.88628401 1.57554035 -5.53342384 2.46276373 -8.75 3.125 C-9.54921875 3.29257813 -10.3484375 3.46015625 -11.171875 3.6328125 C-11.77515625 3.75398437 -12.3784375 3.87515625 -13 4 C-12.67 3.01 -12.34 2.02 -12 1 C-7.64334521 -0.67563646 -4.50462014 -1.36503641 0 0 Z " fill="#2ADAE2" transform="translate(450,227)"/>
<path d="M0 0 C5.94 0.33 11.88 0.66 18 1 C18 1.33 18 1.66 18 2 C13.05 2.33 8.1 2.66 3 3 C3 2.34 3 1.68 3 1 C2.01 0.67 1.02 0.34 0 0 Z " fill="#47E6EA" transform="translate(474,757)"/>
<path d="M0 0 C0.66 0.33 1.32 0.66 2 1 C-0.25740623 3.33524782 -2.2805761 5.18705073 -5 7 C-6.32 6.67 -7.64 6.34 -9 6 C-6.03 4.02 -3.06 2.04 0 0 Z " fill="#29DBDF" transform="translate(669,709)"/>
<path d="M0 0 C0.33 0 0.66 0 1 0 C1.2396943 5.63281599 0.38529821 10.54538831 -1 16 C-3 13 -3 13 -3 11 C-2.34 11 -1.68 11 -1 11 C-1.20625 9.9275 -1.4125 8.855 -1.625 7.75 C-1.9876191 4.12380904 -1.98362069 2.91708924 0 0 Z " fill="#38E1E5" transform="translate(485,579)"/>
<path d="M0 0 C0.33 1.32 0.66 2.64 1 4 C0.34 4 -0.32 4 -1 4 C-1.0825 4.94875 -1.165 5.8975 -1.25 6.875 C-2 10 -2 10 -4.0625 11.375 C-4.701875 11.58125 -5.34125 11.7875 -6 12 C-4.43358249 7.69235185 -2.31663844 3.93828536 0 0 Z " fill="#29DBDE" transform="translate(676,396)"/>
<path d="M0 0 C1.5 1.25 1.5 1.25 3 3 C3 4.32 3 5.64 3 7 C1.35 6.67 -0.3 6.34 -2 6 C-1.34 4.02 -0.68 2.04 0 0 Z " fill="#0CD7DD" transform="translate(718,295)"/>
<path d="M0 0 C0.66 0 1.32 0 2 0 C0.4972742 4.20763224 -2.23332995 5.8027758 -6 8 C-6.66 8 -7.32 8 -8 8 C-7.67 7.01 -7.34 6.02 -7 5 C-5.824375 4.87625 -5.824375 4.87625 -4.625 4.75 C-1.85250896 4.27193661 -1.85250896 4.27193661 -0.6875 1.9375 C-0.460625 1.298125 -0.23375 0.65875 0 0 Z " fill="#22D8DC" transform="translate(459,628)"/>
<path d="M0 0 C0.99 0.33 1.98 0.66 3 1 C1.66511872 4.59391114 0.03977277 7.75490696 -2 11 C-2.95465783 8.83032311 -3.14401212 7.43671207 -2.3984375 5.17578125 C-1.64129615 3.4315257 -0.82390802 1.71372869 0 0 Z " fill="#26DADF" transform="translate(624,608)"/>
<path d="M0 0 C0.66 0.99 1.32 1.98 2 3 C1.5390625 5.04296875 1.5390625 5.04296875 0.625 7.1875 C0.32851563 7.90292969 0.03203125 8.61835937 -0.2734375 9.35546875 C-0.51320313 9.89816406 -0.75296875 10.44085937 -1 11 C-1.66 11 -2.32 11 -3 11 C-2.69078116 9.54096742 -2.37751201 8.08279278 -2.0625 6.625 C-1.88847656 5.81289063 -1.71445312 5.00078125 -1.53515625 4.1640625 C-1 2 -1 2 0 0 Z " fill="#2DDCE0" transform="translate(773,572)"/>
<path d="M0 0 C3.29148243 1.13499394 3.9959869 1.99283376 5.75 5.125 C6.1625 6.07375 6.575 7.0225 7 8 C6.34 8.66 5.68 9.32 5 10 C4.16121545 8.71186658 3.32913217 7.41936744 2.5 6.125 C2.0359375 5.40570312 1.571875 4.68640625 1.09375 3.9453125 C0 2 0 2 0 0 Z " fill="#2BDADF" transform="translate(553,544)"/>
<path d="M0 0 C0.33 1.32 0.66 2.64 1 4 C0.34 4 -0.32 4 -1 4 C-1.33 5.98 -1.66 7.96 -2 10 C-2.99 10.33 -3.98 10.66 -5 11 C-5.33 9.68 -5.66 8.36 -6 7 C-5.01 7 -4.02 7 -3 7 C-2.690625 6.21625 -2.38125 5.4325 -2.0625 4.625 C-1 2 -1 2 0 0 Z " fill="#2CDDE1" transform="translate(598,532)"/>
<path d="M0 0 C0.99 0 1.98 0 3 0 C3.125 3.375 3.125 3.375 3 7 C2.34 7.66 1.68 8.32 1 9 C0.67 6.03 0.34 3.06 0 0 Z " fill="#1BDADC" transform="translate(480,592)"/>
<path d="M0 0 C0.66 0 1.32 0 2 0 C0.74194623 4.50802601 -0.90407165 7.4912812 -4 11 C-4 9.68 -4 8.36 -4 7 C-3.34 7 -2.68 7 -2 7 C-1.855625 6.030625 -1.71125 5.06125 -1.5625 4.0625 C-1 1 -1 1 0 0 Z " fill="#2BDBDE" transform="translate(636,589)"/>
<path d="M0 0 C0.33 0 0.66 0 1 0 C0.88610125 1.79240663 0.75852313 3.58394835 0.625 5.375 C0.52058594 6.87160156 0.52058594 6.87160156 0.4140625 8.3984375 C0 11 0 11 -2 13 C-2.05391993 11.20866022 -2.09275571 9.41686101 -2.125 7.625 C-2.14820313 6.62726562 -2.17140625 5.62953125 -2.1953125 4.6015625 C-2 2 -2 2 0 0 Z " fill="#2FE1E7" transform="translate(589,541)"/>
<path d="M0 0 C0.99 0 1.98 0 3 0 C3.53012738 1.28788008 4.0488329 2.58046678 4.5625 3.875 C4.99755859 4.95394531 4.99755859 4.95394531 5.44140625 6.0546875 C6 8 6 8 5 10 C4.16121545 8.71186658 3.32913217 7.41936744 2.5 6.125 C2.0359375 5.40570313 1.571875 4.68640625 1.09375 3.9453125 C0 2 0 2 0 0 Z " fill="#2FDCE1" transform="translate(505,464)"/>
<path d="M0 0 C2.40072955 2.88087546 4.47291037 5.56404834 6 9 C5.01 9 4.02 9 3 9 C1.68 6.36 0.36 3.72 -1 1 C-0.67 0.67 -0.34 0.34 0 0 Z " fill="#22D9DF" transform="translate(385,401)"/>
<path d="M0 0 C0.66 0.66 1.32 1.32 2 2 C1.7578125 4.1640625 1.7578125 4.1640625 1.125 6.625 C0.92132813 7.44226563 0.71765625 8.25953125 0.5078125 9.1015625 C0.34023437 9.72804688 0.17265625 10.35453125 0 11 C-0.66 10.34 -1.32 9.68 -2 9 C-1.45652174 2.91304348 -1.45652174 2.91304348 0 0 Z " fill="#2BD8DC" transform="translate(246,392)"/>
<path d="M0 0 C1.9375 0.75 1.9375 0.75 4 2 C4.75 4.125 4.75 4.125 5 6 C3.68 6.33 2.36 6.66 1 7 C0.67 4.69 0.34 2.38 0 0 Z " fill="#0ED8DD" transform="translate(729,308)"/>
<path d="M0 0 C3.96 0.33 7.92 0.66 12 1 C12.33 1.99 12.66 2.98 13 4 C11.39431334 3.71682074 9.79047953 3.42312209 8.1875 3.125 C7.29417969 2.96257813 6.40085937 2.80015625 5.48046875 2.6328125 C3 2 3 2 0 0 Z " fill="#39DEE3" transform="translate(429,762)"/>
<path d="M0 0 C2.45234885 0.98093954 3.7809268 1.68703828 5.3125 3.875 C6.12082372 6.37345514 5.71847013 7.52928976 5 10 C4.16121545 8.71186658 3.32913217 7.41936744 2.5 6.125 C2.0359375 5.40570312 1.571875 4.68640625 1.09375 3.9453125 C0 2 0 2 0 0 Z " fill="#2CDBE0" transform="translate(547,534)"/>
<path d="M0 0 C0.6875 1.6875 0.6875 1.6875 1 4 C-0.25 6.6875 -0.25 6.6875 -2 9 C-2.99 9.33 -3.98 9.66 -5 10 C-3.66511872 6.40608886 -2.03977277 3.24509304 0 0 Z " fill="#2BDBDE" transform="translate(648,444)"/>
<path d="M0 0 C2.61500768 2.36595933 4.38999603 4.86049226 6 8 C5.67 8.66 5.34 9.32 5 10 C1.95623822 7.97082548 1.25189126 7.27417715 0 4 C0 2.68 0 1.36 0 0 Z " fill="#28DCE0" transform="translate(561,441)"/>
<path d="M0 0 C2.74277578 3.19990508 4.6302836 6.00499382 6 10 C3.54896452 9.01958581 2.23241214 8.3486182 0.75 6.125 C0 4 0 4 0 0 Z " fill="#29DCE1" transform="translate(546,416)"/>
<path d="M0 0 C4.95 0.99 4.95 0.99 10 2 C10 2.66 10 3.32 10 4 C7.36 3.67 4.72 3.34 2 3 C2 2.34 2 1.68 2 1 C1.34 0.67 0.68 0.34 0 0 Z " fill="#2DDBDF" transform="translate(428,747)"/>
<path d="M0 0 C0.99 0.33 1.98 0.66 3 1 C0.36 2.98 -2.28 4.96 -5 7 C-5.66 6.67 -6.32 6.34 -7 6 C-6.67 5.34 -6.34 4.68 -6 4 C-5.01 4 -4.02 4 -3 4 C-2.67 3.01 -2.34 2.02 -2 1 C-1.34 0.67 -0.68 0.34 0 0 Z " fill="#2FDCE1" transform="translate(674,724)"/>
<path d="M0 0 C0.66 0.99 1.32 1.98 2 3 C0.35 4.32 -1.3 5.64 -3 7 C-3.66 6.34 -4.32 5.68 -5 5 C-3.35 3.35 -1.7 1.7 0 0 Z " fill="#21DCE0" transform="translate(723,661)"/>
<path d="M0 0 C4 4.75 4 4.75 4 7 C2 8.625 2 8.625 0 10 C-0.33 8.68 -0.66 7.36 -1 6 C-0.34 5.67 0.32 5.34 1 5 C0.67 3.35 0.34 1.7 0 0 Z " fill="#41E1E3" transform="translate(255,599)"/>
<path d="M0 0 C2.0245738 1.93254772 3.42105792 3.63158688 5 6 C4.625 8.1875 4.625 8.1875 4 10 C0 4.5 0 4.5 0 0 Z " fill="#24D6DB" transform="translate(578,584)"/>
<path d="M0 0 C1 3 1 3 0.22265625 4.82421875 C-0.8515625 6.54947917 -1.92578125 8.27473958 -3 10 C-3.75 8.375 -3.75 8.375 -4 6 C-2.0625 2.75 -2.0625 2.75 0 0 Z " fill="#1ED7DA" transform="translate(642,579)"/>
<path d="M0 0 C2.74277578 3.19990508 4.6302836 6.00499382 6 10 C3 9 3 9 1.3125 6.6875 C0 4 0 4 0 0 Z " fill="#27DAE0" transform="translate(570,456)"/>
<path d="M0 0 C0 0.99 0 1.98 0 3 C-1.8125 4.75 -1.8125 4.75 -4 6 C-4.99 5.67 -5.98 5.34 -7 5 C-4.63707344 2.47411298 -3.33537489 1.11179163 0 0 Z " fill="#22D8DC" transform="translate(312,290)"/>
<path d="M0 0 C3.8063457 0.67170806 7.35206816 1.72746564 11 3 C11 3.33 11 3.66 11 4 C4.25 4.125 4.25 4.125 2 3 C2 2.34 2 1.68 2 1 C1.34 0.67 0.68 0.34 0 0 Z " fill="#35DFE4" transform="translate(417,743)"/>
<path d="M0 0 C5.66153846 1.47692308 5.66153846 1.47692308 7.375 4.125 C7.684375 5.053125 7.684375 5.053125 8 6 C4.64532525 4.82133049 2.28780716 3.76945078 0 1 C0 0.67 0 0.34 0 0 Z " fill="#24D6DC" transform="translate(314,631)"/>
<path d="M0 0 C0.66 0 1.32 0 2 0 C0.6302836 3.99500618 -1.25722422 6.80009492 -4 10 C-3.125 5.25 -3.125 5.25 -2 3 C-1.34 3 -0.68 3 0 3 C0 2.01 0 1.02 0 0 Z " fill="#2DDBE0" transform="translate(281,347)"/>
<path d="M0 0 C1.31223496 3.93670488 0.24296256 6.12488144 -1 10 C-3 7 -3 7 -2.75 3.875 C-2.37875 2.451875 -2.37875 2.451875 -2 1 C-1.34 0.67 -0.68 0.34 0 0 Z " fill="#2BDFE3" transform="translate(598,510)"/>
<path d="M0 0 C0.33 0.66 0.66 1.32 1 2 C0.22265625 3.7265625 0.22265625 3.7265625 -0.9375 5.625 C-1.618125 6.73875 -2.29875 7.8525 -3 9 C-3.89674777 6.48910624 -4.13172674 5.35464891 -3.1875 2.8125 C-2 1 -2 1 0 0 Z " fill="#2ADDE3" transform="translate(680,514)"/>
<path d="M0 0 C0.33 0 0.66 0 1 0 C0.67 3.63 0.34 7.26 0 11 C-0.33 11 -0.66 11 -1 11 C-2.25 3.375 -2.25 3.375 0 0 Z " fill="#36DFE5" transform="translate(247,435)"/>
<path d="M0 0 C0.66 0 1.32 0 2 0 C0.68775452 3.93673644 -0.91910327 6.22719294 -4 9 C-3.67 7.35 -3.34 5.7 -3 4 C-2.34 4 -1.68 4 -1 4 C-0.67 2.68 -0.34 1.36 0 0 Z " fill="#2CDBE2" transform="translate(287,338)"/>
<path d="M0 0 C0.66 0.33 1.32 0.66 2 1 C-1.32307692 4.93846154 -1.32307692 4.93846154 -4.75 5.25 C-5.4925 5.1675 -6.235 5.085 -7 5 C-2.25 1.125 -2.25 1.125 0 0 Z " fill="#35DEE2" transform="translate(379,238)"/>
<path d="M0 0 C3.37503669 1.1858237 5.64722731 2.27573689 8 5 C5.125 4.75 5.125 4.75 2 4 C0.625 1.9375 0.625 1.9375 0 0 Z " fill="#31DCE1" transform="translate(362,716)"/>
<path d="M0 0 C1.8125 0.1875 1.8125 0.1875 4 1 C5.75 3.5625 5.75 3.5625 7 6 C6.01 6 5.02 6 4 6 C1.8125 3 1.8125 3 0 0 Z " fill="#22D6DD" transform="translate(286,606)"/>
<path d="M0 0 C3.49234244 -0.09978121 6.59437148 0.22157062 10 1 C9.34 1.66 8.68 2.32 8 3 C5.27130593 2.96712417 2.7033382 2.43602229 0 2 C0 1.34 0 0.68 0 0 Z " fill="#3AE7EA" transform="translate(369,592)"/>
<path d="M0 0 C1.46726798 3.81489674 0.43336419 6.29011622 -1 10 C-1.33 10 -1.66 10 -2 10 C-2 7.03 -2 4.06 -2 1 C-1.34 0.67 -0.68 0.34 0 0 Z " fill="#32DFE5" transform="translate(592,531)"/>
<path d="M0 0 C0.99 0 1.98 0 3 0 C1.8141763 3.37503669 0.72426311 5.64722731 -2 8 C-1.125 2.25 -1.125 2.25 0 0 Z " fill="#27DCE2" transform="translate(702,473)"/>
<path d="M0 0 C1.9375 0.625 1.9375 0.625 4 2 C4.75 5.125 4.75 5.125 5 8 C2.27573689 5.64722731 1.1858237 3.37503669 0 0 Z " fill="#31DCE0" transform="translate(492,443)"/>
<path d="M0 0 C1.9375 0.625 1.9375 0.625 4 2 C4.75 5.125 4.75 5.125 5 8 C2.27573689 5.64722731 1.1858237 3.37503669 0 0 Z " fill="#2ADADE" transform="translate(483,428)"/>
<path d="M0 0 C0.75 1.75 0.75 1.75 1 4 C-0.9375 6.25 -0.9375 6.25 -3 8 C-3 4.42424104 -1.91159393 2.94704065 0 0 Z " fill="#29DADD" transform="translate(689,374)"/>
<path d="M0 0 C0.66 0 1.32 0 2 0 C0.90931332 3.77545388 0.0916909 6.47043472 -3 9 C-2.67 7.02 -2.34 5.04 -2 3 C-1.34 3 -0.68 3 0 3 C0 2.01 0 1.02 0 0 Z " fill="#31DDE1" transform="translate(275,357)"/>
<path d="M0 0 C-1.98 0.66 -3.96 1.32 -6 2 C-6 2.66 -6 3.32 -6 4 C-7.65 3.67 -9.3 3.34 -11 3 C-4.33333333 -1.44444444 -4.33333333 -1.44444444 0 0 Z " fill="#04D2D6" transform="translate(430,220)"/>
<path d="M0 0 C1.98 0.99 1.98 0.99 4 2 C2.68 1.67 1.36 1.34 0 1 C0 0.67 0 0.34 0 0 Z " fill="#2AD8DB" transform="translate(434,765)"/>
<path d="M0 0 C0.99 0 1.98 0 3 0 C2.67 0.66 2.34 1.32 2 2 C1.34 1.34 0.68 0.68 0 0 Z " fill="#29D5D8" transform="translate(475,774)"/>
<path d="M0 0 C0.66 0.66 1.32 1.32 2 2 C1.34 2 0.68 2 0 2 C0 1.34 0 0.68 0 0 Z " fill="#28D7DA" transform="translate(471,773)"/>
<path d="M0 0 C3 1 3 1 3 1 Z " fill="#29DEE3" transform="translate(540,222)"/>
<path d="M0 0 C3 1 3 1 3 1 Z " fill="#27E0E1" transform="translate(529,221)"/>
<path d="M0 0 C2 1 2 1 2 1 Z " fill="#2CD8DB" transform="translate(548,775)"/>
<path d="M0 0 C2 1 2 1 2 1 Z " fill="#2DD6DA" transform="translate(484,775)"/>
<path d="M0 0 C2 1 2 1 2 1 Z " fill="#2CD9DD" transform="translate(481,775)"/>
<path d="M0 0 C2 1 2 1 2 1 Z " fill="#2AD5D9" transform="translate(440,767)"/>
<path d="M0 0 C2 1 2 1 2 1 Z " fill="#2FD8DC" transform="translate(431,765)"/>
<path d="" fill="#2FDADB" transform="translate(0,0)"/>
<path d="" fill="#3CD8D9" transform="translate(0,0)"/>
<path d="" fill="#44D6D7" transform="translate(0,0)"/>
<path d="" fill="#22DFE3" transform="translate(0,0)"/>
<path d="M0 0 C2 1 2 1 2 1 Z " fill="#4CD7D7" transform="translate(253,564)"/>
<path d="" fill="#41D8D9" transform="translate(0,0)"/>
<path d="" fill="#41DADC" transform="translate(0,0)"/>
<path d="M0 0 C2 1 2 1 2 1 Z " fill="#22DFE2" transform="translate(540,527)"/>
<path d="" fill="#27DDE3" transform="translate(0,0)"/>
<path d="" fill="#21E2E3" transform="translate(0,0)"/>
<path d="" fill="#1CDEE3" transform="translate(0,0)"/>
<path d="" fill="#3CE1E0" transform="translate(0,0)"/>
<path d="" fill="#43D7D5" transform="translate(0,0)"/>
<path d="" fill="#3CD8D8" transform="translate(0,0)"/>
<path d="" fill="#2FDEE1" transform="translate(0,0)"/>
<path d="" fill="#27DFE3" transform="translate(0,0)"/>
<path d="M0 0 C2 1 2 1 2 1 Z " fill="#28DFE2" transform="translate(443,230)"/>
<path d="M0 0 C2 1 2 1 2 1 Z " fill="#31D8DA" transform="translate(405,224)"/>
<path d="M0 0 C2 1 2 1 2 1 Z " fill="#2AE0E4" transform="translate(505,221)"/>
<path d="" fill="#57726B" transform="translate(0,0)"/>
<path d="" fill="#576863" transform="translate(0,0)"/>
<path d="" fill="#2ED9DC" transform="translate(0,0)"/>
<path d="" fill="#2FD6DB" transform="translate(0,0)"/>
<path d="" fill="#2DD9DB" transform="translate(0,0)"/>
<path d="" fill="#2DD7DC" transform="translate(0,0)"/>
<path d="" fill="#2DDADB" transform="translate(0,0)"/>
<path d="" fill="#31D9D8" transform="translate(0,0)"/>
<path d="" fill="#2DDADC" transform="translate(0,0)"/>
<path d="" fill="#2FD9DA" transform="translate(0,0)"/>
<path d="" fill="#29D9DB" transform="translate(0,0)"/>
<path d="" fill="#30DBDB" transform="translate(0,0)"/>
<path d="" fill="#2DDADA" transform="translate(0,0)"/>
<path d="" fill="#2BE0DE" transform="translate(0,0)"/>
<path d="" fill="#2BD5D9" transform="translate(0,0)"/>
<path d="" fill="#2DD7DD" transform="translate(0,0)"/>
<path d="" fill="#2FDADA" transform="translate(0,0)"/>
<path d="" fill="#29D5D5" transform="translate(0,0)"/>
<path d="" fill="#31D6DA" transform="translate(0,0)"/>
<path d="" fill="#2BD6D9" transform="translate(0,0)"/>
<path d="" fill="#2DD7D9" transform="translate(0,0)"/>
<path d="" fill="#29E0DF" transform="translate(0,0)"/>
<path d="" fill="#2BDDE1" transform="translate(0,0)"/>
<path d="" fill="#27D4D6" transform="translate(0,0)"/>
<path d="" fill="#2ED6D8" transform="translate(0,0)"/>
<path d="" fill="#32D8DD" transform="translate(0,0)"/>
<path d="" fill="#32D7DB" transform="translate(0,0)"/>
<path d="" fill="#33D6D6" transform="translate(0,0)"/>
<path d="" fill="#34D9D8" transform="translate(0,0)"/>
<path d="" fill="#30D6D7" transform="translate(0,0)"/>
<path d="" fill="#24DADF" transform="translate(0,0)"/>
<path d="" fill="#31D3D5" transform="translate(0,0)"/>
<path d="" fill="#25DFDE" transform="translate(0,0)"/>
<path d="" fill="#26DEDE" transform="translate(0,0)"/>
<path d="" fill="#25DEE0" transform="translate(0,0)"/>
<path d="" fill="#31DDDB" transform="translate(0,0)"/>
<path d="" fill="#2DE0E4" transform="translate(0,0)"/>
<path d="" fill="#2BDCDE" transform="translate(0,0)"/>
<path d="" fill="#38D6D7" transform="translate(0,0)"/>
<path d="" fill="#28DEE2" transform="translate(0,0)"/>
<path d="" fill="#2ADFE1" transform="translate(0,0)"/>
<path d="" fill="#32D8DB" transform="translate(0,0)"/>
<path d="" fill="#22DFE0" transform="translate(0,0)"/>
<path d="" fill="#25E1E1" transform="translate(0,0)"/>
<path d="" fill="#27E0E2" transform="translate(0,0)"/>
<path d="" fill="#33D6D9" transform="translate(0,0)"/>
<path d="" fill="#38D8DB" transform="translate(0,0)"/>
<path d="" fill="#26E2E4" transform="translate(0,0)"/>
<path d="" fill="#28DEE3" transform="translate(0,0)"/>
<path d="" fill="#27E3E4" transform="translate(0,0)"/>
<path d="" fill="#28E1E1" transform="translate(0,0)"/>
<path d="" fill="#2BE0E6" transform="translate(0,0)"/>
<path d="" fill="#2BDDE2" transform="translate(0,0)"/>
<path d="" fill="#27DADC" transform="translate(0,0)"/>
<path d="" fill="#24DCDF" transform="translate(0,0)"/>
<path d="" fill="#3BD7D9" transform="translate(0,0)"/>
<path d="" fill="#29DBE1" transform="translate(0,0)"/>
<path d="" fill="#3ED8DA" transform="translate(0,0)"/>
<path d="" fill="#28DEE1" transform="translate(0,0)"/>
<path d="" fill="#43DADE" transform="translate(0,0)"/>
<path d="" fill="#22DEE0" transform="translate(0,0)"/>
<path d="" fill="#24DFE3" transform="translate(0,0)"/>
<path d="" fill="#42DBDB" transform="translate(0,0)"/>
<path d="" fill="#43D6D8" transform="translate(0,0)"/>
<path d="" fill="#23DDDE" transform="translate(0,0)"/>
<path d="" fill="#34DEDF" transform="translate(0,0)"/>
<path d="" fill="#42D9DB" transform="translate(0,0)"/>
<path d="" fill="#4AD9D9" transform="translate(0,0)"/>
<path d="" fill="#2BE3E2" transform="translate(0,0)"/>
<path d="" fill="#3FDCDC" transform="translate(0,0)"/>
<path d="" fill="#28E3E3" transform="translate(0,0)"/>
<path d="" fill="#23DFE2" transform="translate(0,0)"/>
<path d="" fill="#29DDE4" transform="translate(0,0)"/>
<path d="" fill="#26E1E1" transform="translate(0,0)"/>
<path d="" fill="#49D8D6" transform="translate(0,0)"/>
<path d="" fill="#26E1E2" transform="translate(0,0)"/>
<path d="" fill="#49D7D8" transform="translate(0,0)"/>
<path d="" fill="#27DEE1" transform="translate(0,0)"/>
<path d="" fill="#4BD6D9" transform="translate(0,0)"/>
<path d="" fill="#47D5D7" transform="translate(0,0)"/>
<path d="" fill="#46DCDD" transform="translate(0,0)"/>
<path d="" fill="#48DFE0" transform="translate(0,0)"/>
<path d="" fill="#37D8DB" transform="translate(0,0)"/>
<path d="" fill="#25E1E5" transform="translate(0,0)"/>
<path d="" fill="#3DD8D9" transform="translate(0,0)"/>
<path d="" fill="#26E1E5" transform="translate(0,0)"/>
<path d="" fill="#27DFE4" transform="translate(0,0)"/>
<path d="" fill="#3CDAD8" transform="translate(0,0)"/>
<path d="" fill="#22E0E4" transform="translate(0,0)"/>
<path d="" fill="#3CDFE3" transform="translate(0,0)"/>
<path d="" fill="#22E0E1" transform="translate(0,0)"/>
<path d="" fill="#3AD8DC" transform="translate(0,0)"/>
<path d="" fill="#3ADFE1" transform="translate(0,0)"/>
<path d="" fill="#1EDCE0" transform="translate(0,0)"/>
<path d="" fill="#40DADE" transform="translate(0,0)"/>
<path d="" fill="#1CE0E3" transform="translate(0,0)"/>
<path d="" fill="#3CDDE0" transform="translate(0,0)"/>
<path d="" fill="#23E1E4" transform="translate(0,0)"/>
<path d="" fill="#28E0E5" transform="translate(0,0)"/>
<path d="" fill="#3CD9DA" transform="translate(0,0)"/>
<path d="" fill="#25DFE4" transform="translate(0,0)"/>
<path d="" fill="#24E1E3" transform="translate(0,0)"/>
<path d="" fill="#23E1E2" transform="translate(0,0)"/>
<path d="" fill="#3CDCDF" transform="translate(0,0)"/>
<path d="" fill="#20DFE1" transform="translate(0,0)"/>
<path d="" fill="#21E0E2" transform="translate(0,0)"/>
<path d="" fill="#39DCDF" transform="translate(0,0)"/>
<path d="" fill="#1EDDE1" transform="translate(0,0)"/>
<path d="" fill="#20E0E0" transform="translate(0,0)"/>
<path d="" fill="#25E1E2" transform="translate(0,0)"/>
<path d="" fill="#27DDE2" transform="translate(0,0)"/>
<path d="" fill="#43D8D6" transform="translate(0,0)"/>
<path d="" fill="#22E1E6" transform="translate(0,0)"/>
<path d="" fill="#28DFE1" transform="translate(0,0)"/>
<path d="" fill="#38DDE0" transform="translate(0,0)"/>
<path d="" fill="#26DEE1" transform="translate(0,0)"/>
<path d="" fill="#25E1E3" transform="translate(0,0)"/>
<path d="" fill="#2EDADF" transform="translate(0,0)"/>
<path d="" fill="#1CDDE3" transform="translate(0,0)"/>
<path d="" fill="#1FE2E6" transform="translate(0,0)"/>
<path d="" fill="#1FDEE0" transform="translate(0,0)"/>
<path d="" fill="#19E1E1" transform="translate(0,0)"/>
<path d="" fill="#27E2E3" transform="translate(0,0)"/>
<path d="" fill="#25E4E6" transform="translate(0,0)"/>
<path d="" fill="#27E5E7" transform="translate(0,0)"/>
<path d="" fill="#23E4E4" transform="translate(0,0)"/>
<path d="" fill="#1EE1E2" transform="translate(0,0)"/>
<path d="" fill="#2FE0E6" transform="translate(0,0)"/>
<path d="" fill="#23E3E8" transform="translate(0,0)"/>
<path d="" fill="#24E1E4" transform="translate(0,0)"/>
<path d="" fill="#25DFE2" transform="translate(0,0)"/>
<path d="" fill="#26D9DB" transform="translate(0,0)"/>
<path d="" fill="#27E0E4" transform="translate(0,0)"/>
<path d="" fill="#3AE2E4" transform="translate(0,0)"/>
<path d="" fill="#38DADE" transform="translate(0,0)"/>
<path d="" fill="#21E1E2" transform="translate(0,0)"/>
<path d="" fill="#1FDBDE" transform="translate(0,0)"/>
<path d="" fill="#3ADBDD" transform="translate(0,0)"/>
<path d="" fill="#2AD9E3" transform="translate(0,0)"/>
<path d="" fill="#33D8D8" transform="translate(0,0)"/>
<path d="" fill="#28DEE0" transform="translate(0,0)"/>
<path d="" fill="#27DFE1" transform="translate(0,0)"/>
<path d="" fill="#2AE3E2" transform="translate(0,0)"/>
<path d="" fill="#28DFE4" transform="translate(0,0)"/>
<path d="" fill="#26E2E5" transform="translate(0,0)"/>
<path d="" fill="#28E1E2" transform="translate(0,0)"/>
<path d="" fill="#39D8D9" transform="translate(0,0)"/>
<path d="" fill="#36DCDE" transform="translate(0,0)"/>
<path d="" fill="#38DCDD" transform="translate(0,0)"/>
<path d="" fill="#41DBDB" transform="translate(0,0)"/>
<path d="" fill="#3CD8DF" transform="translate(0,0)"/>
<path d="" fill="#36DADD" transform="translate(0,0)"/>
<path d="" fill="#2CDDE1" transform="translate(0,0)"/>
<path d="" fill="#2DDCDE" transform="translate(0,0)"/>
<path d="" fill="#2BDEE3" transform="translate(0,0)"/>
<path d="" fill="#2EDBDE" transform="translate(0,0)"/>
<path d="" fill="#34E1E3" transform="translate(0,0)"/>
<path d="" fill="#34D9D7" transform="translate(0,0)"/>
<path d="" fill="#31D5DC" transform="translate(0,0)"/>
<path d="" fill="#33D6DA" transform="translate(0,0)"/>
<path d="" fill="#32D6D8" transform="translate(0,0)"/>
<path d="" fill="#32DDE3" transform="translate(0,0)"/>
<path d="" fill="#39D7D7" transform="translate(0,0)"/>
<path d="" fill="#30E0E1" transform="translate(0,0)"/>
<path d="" fill="#2BDBDF" transform="translate(0,0)"/>
<path d="" fill="#3AD9DB" transform="translate(0,0)"/>
<path d="" fill="#2FD7DC" transform="translate(0,0)"/>
<path d="" fill="#30D8D9" transform="translate(0,0)"/>
<path d="" fill="#2CDFE3" transform="translate(0,0)"/>
<path d="" fill="#2CDEE0" transform="translate(0,0)"/>
<path d="" fill="#31E0E2" transform="translate(0,0)"/>
<path d="" fill="#2DDEE2" transform="translate(0,0)"/>
<path d="" fill="#31DCE2" transform="translate(0,0)"/>
<path d="" fill="#2FDADF" transform="translate(0,0)"/>
<path d="" fill="#2EDCDF" transform="translate(0,0)"/>
<path d="" fill="#28DFE1" transform="translate(0,0)"/>
<path d="" fill="#2CDBE0" transform="translate(0,0)"/>
<path d="" fill="#25DDE1" transform="translate(0,0)"/>
<path d="" fill="#25DCE1" transform="translate(0,0)"/>
<path d="" fill="#2FD9D9" transform="translate(0,0)"/>
<path d="" fill="#2CDEE0" transform="translate(0,0)"/>
<path d="" fill="#29DBDE" transform="translate(0,0)"/>
<path d="" fill="#28DDE1" transform="translate(0,0)"/>
<path d="" fill="#2BDDE1" transform="translate(0,0)"/>
<path d="" fill="#27DDE1" transform="translate(0,0)"/>
<path d="" fill="#2BDDE3" transform="translate(0,0)"/>
<path d="" fill="#2DDDE3" transform="translate(0,0)"/>
<path d="" fill="#35D9D9" transform="translate(0,0)"/>
<path d="" fill="#2AD3D5" transform="translate(0,0)"/>
<path d="" fill="#26DDE1" transform="translate(0,0)"/>
<path d="" fill="#26DEE1" transform="translate(0,0)"/>
<path d="" fill="#2ADEE4" transform="translate(0,0)"/>
<path d="" fill="#2CDDE1" transform="translate(0,0)"/>
<path d="" fill="#2CE2E6" transform="translate(0,0)"/>
<path d="" fill="#29DFE3" transform="translate(0,0)"/>
<path d="" fill="#28DEE2" transform="translate(0,0)"/>
<path d="" fill="#2CDFE5" transform="translate(0,0)"/>
<path d="" fill="#2ADFE4" transform="translate(0,0)"/>
<path d="" fill="#25DFE1" transform="translate(0,0)"/>
<path d="" fill="#32D9DA" transform="translate(0,0)"/>
<path d="" fill="#37DCDC" transform="translate(0,0)"/>
<path d="" fill="#32D6D9" transform="translate(0,0)"/>
<path d="" fill="#32D9D9" transform="translate(0,0)"/>
<path d="" fill="#30D7DA" transform="translate(0,0)"/>
<path d="" fill="#30D9DB" transform="translate(0,0)"/>
<path d="" fill="#33D8DA" transform="translate(0,0)"/>
<path d="" fill="#6A6F6F" transform="translate(0,0)"/>
</svg>
